<?xml version="1.0" standalone="no"?><!DOCTYPE svg PUBLIC "-//W3C//DTD SVG 1.1//EN" "http://www.w3.org/Graphics/SVG/1.1/DTD/svg11.dtd"><svg t="1508737067579" class="icon" style="" viewBox="0 0 1024 1024" version="1.1" xmlns="http://www.w3.org/2000/svg" p-id="3284" xmlns:xlink="http://www.w3.org/1999/xlink" width="200" height="200"><defs><style type="text/css"></style></defs><path d="M79.365 338.985l545.26 483.51z" fill="#D8D8D8" p-id="3285"></path><path d="M967.743 626.761l-89.712-79.808c-2.913-216.123-178.841-390.885-395.547-390.885-92.624 0-177.676 31.457-244.668 85.051l-34.953-31.457c-11.651-9.903-29.127-9.321-39.030 2.331s-9.321 29.127 2.331 39.030l30.875 27.379 23.884 20.972c14.563 12.816 15.729 34.953 2.913 48.933-9.321 10.485-24.467 14.563-37.283 9.903l-70.487-61.167c-22.719-20.389-58.254-18.059-78.643 4.66s-18.059 58.254 4.66 78.643l61.749 54.759c-11.069 36.7-17.476 75.73-17.476 116.509 0 218.453 177.093 395.547 395.547 395.547 119.421 0 226.027-53.011 298.844-136.315l43.691 38.448c9.903 8.738 23.301 13.981 36.7 13.981 15.146 0 30.875-6.407 41.36-18.641 20.389-22.719 18.059-58.254-4.66-78.643l-99.033-87.381c-12.234-15.729-12.234-37.866 1.747-53.594 12.816-14.563 33.788-18.059 50.682-9.321l69.905 62.332c6.407 5.825 14.563 8.738 23.301 8.738 9.321 0 19.223-4.078 26.214-11.651 12.816-13.981 11.651-35.535-2.913-48.351z" fill="#F5F5F5" p-id="3286"></path><path d="M205.196 78.006c0 6.991 5.825 12.816 12.816 13.398 6.991 0 12.816-5.825 13.398-12.816 0-6.991-5.825-12.816-12.816-12.816-7.573-1.165-13.398 4.66-13.398 12.234zM717.831 95.483c-10.485 0-18.641-8.156-18.641-18.641s8.156-18.641 18.641-18.641c10.485 0 18.641 8.156 18.641 18.641 0 10.485-8.738 18.641-18.641 18.641zM717.831 62.86c-7.573 0-13.981 6.407-13.981 13.981s6.407 13.981 13.981 13.981c7.573 0 13.981-6.407 13.981-13.981 0-7.573-6.407-13.981-13.981-13.981zM280.925 765.988h-11.651v-133.985h11.651v133.985zM283.256 620.935l-11.069-3.495 23.301-69.323c10.485-31.457 20.972-62.914 31.457-94.955l11.069 3.495c-10.485 31.457-20.972 62.914-31.457 94.955l-23.301 69.323z" fill="#FF8D08" p-id="3287"></path><path d="M269.276 632.587c-0.582-5.243 1.165-9.903 2.331-13.981l0.582-1.165 11.069 4.078-0.582 1.165c-1.165 3.495-2.331 6.407-1.747 9.321l-11.651 0.582zM287.916 786.96c-4.078 0-9.321-0.582-13.398-4.66-5.243-4.66-4.66-11.069-4.66-15.729v-1.165h11.651v1.165c0 2.913 0 5.825 1.165 6.991h0.582c1.165 1.165 4.078 1.165 6.991 1.165h412.439c2.331 0 4.078-0.582 4.078-1.165l0.582-0.582c0.582 0 1.165-1.165 1.165-4.078v-136.897c0-2.331 0-4.078-0.582-5.825-7.573-22.719-15.146-45.438-22.719-67.574-11.069-34.37-22.719-68.158-34.37-102.527-0.582-2.331-2.331-3.495-4.078-3.495h-299.427c-2.331 0-4.078 0-5.825 0.582-1.165 0.582-2.331 1.747-2.913 2.913l-11.651-2.331c1.747-5.243 5.825-9.321 11.069-10.485 2.913-1.165 6.407-0.582 9.321-0.582h298.261c6.991 0 13.398 4.66 15.729 11.651 11.651 33.788 22.719 68.158 34.37 101.945l22.719 68.158c1.165 3.495 1.165 6.407 0.582 9.321v136.315c0 5.825-1.747 9.903-4.66 12.816-4.078 4.078-9.903 4.66-12.816 4.66h-412.439c-0.582-0.582-1.165-0.582-1.165-0.582z" fill="#FF8D08" p-id="3288"></path><path d="M493.554 703.657c-13.398 0-26.214-4.078-36.7-12.234-15.146-11.069-25.050-28.545-25.632-47.186 0-1.747 0-4.66-1.165-5.825l-0.582-0.582c-0.582-0.582-1.747-0.582-4.078-0.582h-127.577c-3.495 0-5.825-2.331-5.825-5.825s2.331-5.825 5.825-5.825h127.577c4.078 0 8.738 0.582 12.234 4.078 4.66 4.078 5.243 10.485 5.243 13.981 0.582 14.563 8.738 29.71 20.972 38.448 9.321 6.991 20.972 10.485 32.622 9.903 13.398-0.582 26.797-6.991 36.117-17.476 7.573-8.738 12.234-20.389 12.816-32.039 0-2.913 0.582-8.738 4.66-12.816 3.495-4.078 9.321-4.66 12.816-4.66h127.577c3.495 0 5.825 2.331 5.825 5.825s-2.331 5.825-5.825 5.825h-127.577c-2.913 0-4.078 0.582-4.078 1.165l-0.582 0.582c-1.165 0.582-1.165 3.495-1.165 4.66-0.582 13.981-5.825 27.962-15.729 39.030-11.069 12.816-27.379 20.389-44.273 20.972-1.165 0.582-2.331 0.582-3.495 0.582zM945.024 304.615s-9.321 31.457-27.962 36.117c0 0 23.301 9.321 27.962 32.622 0 0 3.495-33.788 30.292-34.37 0 0-29.127-15.729-30.292-34.37zM974.15 253.351s-3.495 11.651-10.485 13.398c0 0 8.738 3.495 10.485 12.234 0 0 1.165-12.816 11.069-12.816 0 0-10.485-5.825-11.069-12.816zM404.426 9.849s-6.991 23.884-21.554 27.379c0 0 18.059 6.991 21.554 25.050 0 0 2.913-25.632 23.301-26.214 0 0-22.137-12.234-23.301-26.214zM614.722 217.817l58.836 26.214 95.537-75.73-72.818 79.226 72.818 23.884 40.195-146.801-194.57 93.206zM695.696 265.585l-4.078 44.855 25.050-32.622-20.972-12.234zM456.853 496.854c-14.563 8.156-25.632 12.816-25.632 12.816l2.331 6.407c0.582 0 11.651-4.66 26.797-12.816 0-0.582-3.495-6.407-3.495-6.407zM489.476 474.717c-6.991 5.243-13.981 10.485-21.554 15.146-1.747 1.165-2.331 2.913-1.165 4.66 1.165 1.747 2.913 2.331 4.66 1.165 7.573-4.66 15.146-9.903 22.137-15.729 1.747-1.165 1.747-3.495 0.582-4.66-1.165-1.747-2.913-1.747-4.66-0.582zM527.923 438.599c-1.747-1.165-3.495-0.582-4.66 0.582-5.825 8.156-12.234 15.729-20.389 23.301-1.165 1.165-1.165 3.495 0 4.66s3.495 1.165 4.66 0c8.156-7.573 15.146-16.311 20.972-24.467 1.165-0.582 0.582-2.913-0.582-4.078zM543.651 363.452c0 1.747 1.747 3.495 4.078 2.913 1.747 0 3.495-1.747 2.913-4.078-1.747-15.729-7.573-27.379-16.311-35.535-1.747-1.165-3.495-1.165-4.66 0.582-1.165 1.165-1.165 3.495 0.582 4.66 6.991 6.991 11.651 17.476 13.398 31.457zM487.146 328.499c0.582 0 1.165 0 1.747-0.582 9.321-4.078 19.807-5.243 28.545-2.913 1.747 0.582 4.078-0.582 4.078-2.331 0.582-1.747-0.582-4.078-2.331-4.078-10.485-2.913-22.719-1.747-33.205 2.913-1.747 0.582-2.331 2.913-1.747 4.66 0 1.165 1.165 2.331 2.913 2.331zM467.922 364.034c-0.582-2.913-0.582-5.825-0.582-8.738l3.495-11.069c1.747-2.913 3.495-5.243 5.243-7.573 1.165-1.165 1.165-3.495 0-4.66-1.165-1.165-3.495-1.165-4.66 0-9.321 9.321-12.816 21.554-9.903 33.205 0.582 1.747 2.331 2.913 4.078 2.331 1.165 0 2.331-1.747 2.331-3.495zM469.086 376.268c-1.747 1.165-1.747 3.495-1.165 4.66 3.495 5.243 8.738 10.485 14.563 15.729 2.331 1.747 4.078 3.495 6.407 5.243 1.747 1.165 3.495 0.582 4.66-0.582s0.582-3.495-0.582-4.66c-2.331-1.747-4.078-2.913-6.407-4.66-5.243-4.66-9.903-9.321-13.398-13.981-0.582-2.331-2.913-2.913-4.078-1.747zM523.845 416.463c1.747 0 3.495-1.747 3.495-3.495s-1.165-3.495-2.913-3.495c-6.991-1.165-13.981-3.495-20.389-6.407-1.747-1.165-4.078 0-4.66 1.747-1.165 1.747 0 4.078 1.747 4.66 6.991 2.913 14.563 5.825 22.719 6.991-0.582 0 0 0 0 0zM550.061 407.142c-1.165 0.582-2.913 0.582-4.078 1.165 2.331-8.156 4.078-16.894 4.66-25.050 0-1.747-1.165-3.495-3.495-3.495-1.747 0-3.495 1.165-3.495 3.495-0.582 9.321-2.331 18.059-5.825 26.797h-4.078c-1.747 0-3.495 1.747-3.495 3.495s1.747 3.495 3.495 3.495h1.165c-1.165 3.495-2.913 6.407-4.66 9.903-0.582 1.747 0 4.078 1.747 4.66 1.747 0.582 3.495 0 4.66-1.165 2.331-4.66 4.66-8.738 6.407-13.398l8.738-1.747c1.747-0.582 2.913-2.331 2.331-4.078 0-3.495-2.331-4.66-4.078-4.078zM591.42 383.259c-8.156 6.991-16.311 12.816-23.884 17.476-1.747 1.165-2.331 2.913-1.165 4.66 1.165 1.747 2.913 2.331 4.66 1.165 8.156-4.66 16.894-10.485 25.632-18.059 1.747-1.165 1.747-3.495 0.582-4.66-2.331-1.747-4.66-1.747-5.825-0.582zM626.956 348.306c-1.747-1.165-3.495-0.582-4.66 0.582-5.825 7.573-12.234 15.146-18.059 21.554-1.165 1.165-1.165 3.495 0 4.66 1.165 1.165 3.495 1.165 4.66 0 6.407-6.407 12.234-13.981 18.641-22.137 1.165-1.165 1.165-3.495-0.582-4.66zM655.5 303.45c-1.747-1.165-4.078-0.582-4.66 1.165-5.243 9.903-11.651 19.223-17.476 28.545-1.165 1.747-0.582 3.495 0.582 4.66 1.747 1.165 3.495 0.582 4.66-0.582 6.407-9.321 12.234-19.223 18.059-29.127 1.165-1.747 0.582-4.078-1.165-4.66zM677.637 258.594c-1.747-0.582-4.078 0-4.66 1.747 0 0-4.66 11.069-12.234 26.214-1.165 1.747 0 4.078 1.747 4.66 1.747 1.165 4.078 0 4.66-1.747 8.156-15.729 12.816-26.214 12.816-26.797 0.582-1.165-0.582-2.913-2.331-4.078z" fill="#FF8D08" p-id="3289"></path></svg>