<?xml version="1.0" standalone="no"?><!DOCTYPE svg PUBLIC "-//W3C//DTD SVG 1.1//EN" "http://www.w3.org/Graphics/SVG/1.1/DTD/svg11.dtd"><svg t="1511761403758" class="icon" style="" viewBox="0 0 1024 1024" version="1.1" xmlns="http://www.w3.org/2000/svg" p-id="20327" xmlns:xlink="http://www.w3.org/1999/xlink" width="200" height="200"><defs><style type="text/css"></style></defs><path d="M283.479 587.278c0 38.027-30.827 68.853-68.853 68.853s-68.853-30.827-68.853-68.853c0-38.027 30.827-68.853 68.853-68.853s68.853 30.827 68.853 68.853z m-68.853-51.752c-28.582 0-51.752 23.17-51.752 51.752s23.17 51.752 51.752 51.752 51.752-23.17 51.752-51.752-23.17-51.752-51.752-51.752zM851.71 587.278c0 38.027-30.827 68.853-68.853 68.853-38.027 0-68.853-30.827-68.853-68.853 0-38.027 30.827-68.853 68.853-68.853 38.027 0 68.853 30.827 68.853 68.853z m-68.853-50.852c-28.085 0-50.852 22.767-50.852 50.852 0 28.085 22.767 50.852 50.852 50.852 28.085 0 50.852-22.767 50.852-50.852 0-28.085-22.767-50.852-50.852-50.852z" p-id="20328"></path><path d="M51.268 597.329l14.401-10.051s-9.9-13.351-9.9-43.052 10.801-32.227 10.801-32.227v-15.476c36.002-43.202 229.511-57.603 229.511-57.603s108.005-55.803 157.507-68.403 226.811-5.4 226.811-5.4c8.1-3.6 40.502-7.2 40.502-7.2l0.9 13.501c19.801 2.7 161.108 49.502 166.508 51.302s38.702 8.1 60.303 9c21.601 0.9 15.301 13.501 15.301 13.501-5.4 9 2.7 49.502 2.7 49.502 9.9 19.801 24.301 58.503 12.601 82.804-11.701 24.301-115.205 28.801-115.205 28.801s0-104.405-85.504-104.405-74.706 110.707-74.706 110.707H296.08s8.1-104.405-81.454-104.405-84.154 104.405-84.154 104.405c-76.504-5.401-79.204-15.301-79.204-15.301z m94.505-96.304H76.47s-4.5 21.601 6.3 23.401c10.8 1.8 45.902-0.9 63.003-23.401z m203.409-33.302c1.8-32.401 26.101-34.202 38.702-28.801 12.601 5.4-0.9 23.401-0.9 23.401l144.907-10.801 13.501-69.303c-146.707 0.9-224.11 85.504-224.11 85.504h27.9z m223.211-18.001l113.405-7.2V389.42s-90.004-7.2-108.905-7.2l-4.5 67.502z m141.611-8.1s81.599 0.9 86.1-9.9c4.5-10.801-64.901-32.953-91.804-37.802l5.704 47.702z" p-id="20329"></path><path d="M909.909 467.723l34.202 33.302 15.301-10.801s1.8-14.401 0-22.501c-0.001 0-33.303-5.4-49.503 0z" p-id="20330"></path></svg>