
<svg width="25px" height="25px" viewBox="0 0 25 25" version="1.1" xmlns="http://www.w3.org/2000/svg" xmlns:xlink="http://www.w3.org/1999/xlink">
    <!-- Generator: Sketch 47.1 (45422) - http://www.bohemiancoding.com/sketch -->
    <desc>Created with Sketch.</desc>
    <defs></defs>
    <g id="Page-1" stroke="none" stroke-width="1" fill="none" fill-rule="evenodd">
        <g id="账单支付" transform="translate(-123.000000, -623.000000)" fill-rule="nonzero" fill="#FFFFFF">
            <g id="支付宝" transform="translate(13.000000, 608.000000)">
                <g transform="translate(110.000000, 15.000000)" id="Shape">
                    <path d="M14.3592976,16.3960266 C14.3592976,16.3960266 12.5004385,17.8837952 11.8241025,18.273592 C11.3021347,18.5749551 10.7491905,18.8191494 10.17486,19.0019396 C9.67731831,19.159813 9.24142113,19.2591729 8.86716851,19.3002701 C8.49291589,19.3413673 8.18318958,19.3673037 7.93736312,19.3793321 C7.91405847,19.3906088 7.88461442,19.3968736 7.84965745,19.3968736 L7.56887401,19.3968736 C6.92549027,19.3968736 6.32019586,19.320944 5.75286547,19.1684584 C5.1851592,19.016474 4.69112569,18.7910659 4.27001318,18.4928606 C3.85436343,18.2007595 3.51204646,17.8163207 3.26991796,17.3697044 C3.02459267,16.9191388 2.90167944,16.3956507 2.90167944,15.7992402 C2.91333176,15.2847735 3.05366083,14.8165411 3.32229077,14.3954202 C3.59179777,13.9742992 3.93973869,13.6174553 4.36661471,13.3247631 C4.79361603,13.0318203 5.26747723,12.8101711 5.78832362,12.6576854 C6.30879412,12.505701 6.83227168,12.4416746 7.35888158,12.4649797 C7.87346327,12.4882848 8.37062913,12.5495547 8.85025385,12.6487894 C9.3153918,12.7445635 9.77518398,12.864679 10.227734,13.0086404 C10.6662624,13.1490976 11.0816114,13.3010821 11.473781,13.4652202 C11.8461082,13.6209191 12.217486,13.7788789 12.5878936,13.939091 C12.7282227,13.9976043 12.8744406,14.0563683 13.026422,14.1147564 C13.1784034,14.1731445 13.3362736,14.2320338 13.5002832,14.2904218 C13.8397041,13.8576483 14.1257499,13.4337709 14.359924,13.0180377 C14.5937223,12.6028056 14.7869253,12.2227819 14.9389067,11.8774652 C15.0913893,11.5323991 15.2084137,11.2430899 15.2903559,11.0087858 C15.3720475,10.7749828 15.4244203,10.6113458 15.4482261,10.5174989 L7.83174043,10.5174989 L7.83174043,9.67513169 L11.4293017,9.67513169 L11.4293017,7.72777619 L6.42794854,7.72777619 L6.42794854,6.88540899 L11.4293017,6.88540899 L11.4293017,5.30592351 C11.4293017,5.20079989 11.487438,5.11584898 11.6045878,5.05157197 C11.7217375,4.98716966 11.856303,4.94331594 12.0082844,4.92013612 C12.1839464,4.88480256 12.382537,4.86738637 12.604683,4.86738637 L13.9557262,4.86738637 L13.9557262,6.88540899 L19.0969072,6.88540899 L19.0969072,7.72777619 L13.9557262,7.72777619 L13.9557262,9.67513169 L18.0413069,9.67513169 C18.0423092,9.66936806 18.0431863,9.66347913 18.043938,9.6577155 L18.043938,9.67513169 L18.0413069,9.67513169 C17.9586129,10.1963644 17.8195368,10.74629 17.6229508,11.3247831 C17.4593171,11.8278479 17.216623,12.4009533 16.8946179,13.0443499 C16.5728634,13.6876212 16.1489944,14.3488099 15.6223845,15.0275401 C15.6223845,15.0275401 19.6497036,16.9540964 23.9006721,17.6322002 C24.6065774,16.0664973 25,14.3287625 25,12.4996868 C25,5.59648569 19.4031253,0 12.4999374,0 C5.5963735,-1.17914804e-15 0,5.59648569 0,12.4996868 C0,19.4030131 5.5963735,25 12.4999374,25 C16.7819787,25 20.5609655,22.8464068 22.8136229,19.5635177 C20.5248808,19.0645878 18.0931785,18.0545741 14.3592976,16.3960266 Z M5.00067311,15.9282585 C4.95369856,17.8454088 7.37983995,17.9878596 7.75400788,17.9980506 C8.99075375,18.0320955 9.98924471,17.6143742 10.7665169,17.2016925 C11.5441648,16.7885628 12.8127281,15.7219737 12.8600785,15.6852411 C12.906552,15.6485085 12.9535265,15.6097601 13,15.567764 C12.6715131,15.4053248 12.3380978,15.2509822 12.0001311,15.1049109 C11.6729377,14.963916 10.0089114,14.1646461 8.5325327,14.0285787 C5.7368582,13.7692107 5.01495337,15.3452406 5.00067311,15.9282585 Z"></path>
                </g>
            </g>
        </g>
    </g>
</svg>