<?xml version="1.0" standalone="no"?><!DOCTYPE svg PUBLIC "-//W3C//DTD SVG 1.1//EN" "http://www.w3.org/Graphics/SVG/1.1/DTD/svg11.dtd"><svg t="1511924500582" class="icon" style="" viewBox="0 0 1024 1024" version="1.1" xmlns="http://www.w3.org/2000/svg" p-id="1879" xmlns:xlink="http://www.w3.org/1999/xlink" width="200" height="200"><defs><style type="text/css"></style></defs><path d="M494.595608 954.442808c-276.848329 0-392.942417-99.017154-392.942417-302.507732 0-168.588673 131.674948-344.508311 291.296389-399.999137l203.320709 0c159.659303 55.490825 291.300482 231.410464 291.300482 399.999137C887.538025 855.425653 771.43882 954.442808 494.595608 954.442808L494.595608 954.442808 494.595608 954.442808zM603.496877 620.030435l0-0.068562c18.340717-0.105401 33.202193-14.997576 33.202193-33.371038 0-18.442024-14.862499-33.334199-33.202193-33.401738l0-0.13917-67.420529 0c0.101307-0.714268-0.100284-1.394766-0.033769-2.145873l78.977749-80.715323c12.884448-14.553461 6.339382-26.483164-6.681166-39.677675-13.091156-13.222139-34.530444-16.019859-45.094034-4.462638l-67.902506 72.365144-73.387427-73.318866c-9.233292-9.272177-27.332509-6.305613-40.35715 6.714935-12.986779 13.019525-16.020882 31.084972-6.749728 40.35715l75.05644 75.022671c-1.394766 1.804089-2.314719 3.815909-2.860141 5.895267l-60.980863 0 0 0.106424-0.168846 0c-18.475793 0-33.405831 14.925944-33.405831 33.435507 0 18.408255 14.930037 33.405831 33.405831 33.405831 0.068562 0 0.101307-0.033769 0.168846-0.033769l0 0.066515 66.842361 0 0 33.334199-66.842361 0 0 0.066515-0.168846 0c-18.475793 0-33.405831 14.963807-33.405831 33.474392 0 18.407232 14.930037 33.405831 33.405831 33.405831 0.068562 0 0.101307-0.034792 0.168846-0.034792l0 0.034792 66.842361 0 0 33.67496 0.718361 0c-0.545422 2.591011-0.819668 5.317099-0.819668 8.113795 0 23.108301 18.745946 41.820478 41.823548 41.820478 23.077601 0 41.823548-18.712177 41.823548-41.820478 0-2.796696-0.308015-5.522784-0.819668-8.113795l0.410346 0 0-33.67496 67.525929-0.034792c18.3356-0.100284 33.199123-14.997576 33.199123-33.371038 0-18.437931-14.863523-33.334199-33.199123-33.43653l0-0.105401L536.042579 653.398404l0-33.334199 67.454298 0L603.496877 620.030435 603.496877 620.030435zM653.43422 118.389364l-7.02295 8.794293c-0.168846 0.135076-0.270153 0.337691-0.405229 0.51063l-59.479673 74.271564L385.9297 201.965851l-59.310827-74.135464c-0.443092-0.443092-0.748037-0.954745-1.191128-1.39886l-6.411013-8.04114 1.161453-2.287089c-0.583285-2.044566-1.297552-4.052293-1.297552-6.27082 0-10.666944 6.681166-19.634176 16.087397-23.315008l0.786922-1.602498c0 0 82.180697-16.430204 150.488433-16.700357 71.476915-0.275269 150.454664 16.700357 150.454664 16.700357l0.815575 1.602498c9.305947 3.680832 15.95232 12.68081 15.95232 23.280216 0 2.180666-0.714268 4.158716-1.225921 6.135744L653.43422 118.389364 653.43422 118.389364 653.43422 118.389364zM653.43422 118.389364" p-id="1880" fill="#f8f8f4"></path></svg>