<svg width="4px" height="95px" viewBox="0 0 4 95" version="1.1" xmlns="http://www.w3.org/2000/svg" xmlns:xlink="http://www.w3.org/1999/xlink">
    <!-- Generator: Sketch 47.1 (45422) - http://www.bohemiancoding.com/sketch -->
    <desc>Created with Sketch.</desc>
    <defs></defs>
    <g id="Page-1" stroke="none" stroke-width="1" fill="none" fill-rule="evenodd">
        <g id="选择优惠券" transform="translate(-356.000000, -72.000000)" fill="#F3F3F3">
            <g id="Group" transform="translate(16.000000, 70.000000)">
                <path d="M342,6 C340.895431,6 340,5.1045695 340,4 C340,2.8954305 340.895431,2 342,2 C343.104569,2 344,2.8954305 344,4 C344,5.1045695 343.104569,6 342,6 Z M342,13 C340.895431,13 340,12.1045695 340,11 C340,9.8954305 340.895431,9 342,9 C343.104569,9 344,9.8954305 344,11 C344,12.1045695 343.104569,13 342,13 Z M342,20 C340.895431,20 340,19.1045695 340,18 C340,16.8954305 340.895431,16 342,16 C343.104569,16 344,16.8954305 344,18 C344,19.1045695 343.104569,20 342,20 Z M342,27 C340.895431,27 340,26.1045695 340,25 C340,23.8954305 340.895431,23 342,23 C343.104569,23 344,23.8954305 344,25 C344,26.1045695 343.104569,27 342,27 Z M342,34 C340.895431,34 340,33.1045695 340,32 C340,30.8954305 340.895431,30 342,30 C343.104569,30 344,30.8954305 344,32 C344,33.1045695 343.104569,34 342,34 Z M342,41 C340.895431,41 340,40.1045695 340,39 C340,37.8954305 340.895431,37 342,37 C343.104569,37 344,37.8954305 344,39 C344,40.1045695 343.104569,41 342,41 Z M342,48 C340.895431,48 340,47.1045695 340,46 C340,44.8954305 340.895431,44 342,44 C343.104569,44 344,44.8954305 344,46 C344,47.1045695 343.104569,48 342,48 Z M342,55 C340.895431,55 340,54.1045695 340,53 C340,51.8954305 340.895431,51 342,51 C343.104569,51 344,51.8954305 344,53 C344,54.1045695 343.104569,55 342,55 Z M342,62 C340.895431,62 340,61.1045695 340,60 C340,58.8954305 340.895431,58 342,58 C343.104569,58 344,58.8954305 344,60 C344,61.1045695 343.104569,62 342,62 Z M342,69 C340.895431,69 340,68.1045695 340,67 C340,65.8954305 340.895431,65 342,65 C343.104569,65 344,65.8954305 344,67 C344,68.1045695 343.104569,69 342,69 Z M342,76 C340.895431,76 340,75.1045695 340,74 C340,72.8954305 340.895431,72 342,72 C343.104569,72 344,72.8954305 344,74 C344,75.1045695 343.104569,76 342,76 Z M342,83 C340.895431,83 340,82.1045695 340,81 C340,79.8954305 340.895431,79 342,79 C343.104569,79 344,79.8954305 344,81 C344,82.1045695 343.104569,83 342,83 Z M342,90 C340.895431,90 340,89.1045695 340,88 C340,86.8954305 340.895431,86 342,86 C343.104569,86 344,86.8954305 344,88 C344,89.1045695 343.104569,90 342,90 Z M342,97 C340.895431,97 340,96.1045695 340,95 C340,93.8954305 340.895431,93 342,93 C343.104569,93 344,93.8954305 344,95 C344,96.1045695 343.104569,97 342,97 Z" id="Combined-Shape"></path>
            </g>
        </g>
    </g>
</svg>