<svg width="109px" height="83px" viewBox="0 0 109 83" version="1.1" xmlns="http://www.w3.org/2000/svg" xmlns:xlink="http://www.w3.org/1999/xlink">
    <!-- Generator: Sketch 47.1 (45422) - http://www.bohemiancoding.com/sketch -->
    <desc>Created with Sketch.</desc>
    <defs></defs>
    <g id="Page-1" stroke="none" stroke-width="1" fill="none" fill-rule="evenodd">
        <g id="选择优惠券" transform="translate(-265.000000, -327.000000)" fill-rule="nonzero" fill="#CFCFCF">
            <g id="Group-Copy-2" transform="translate(16.000000, 310.000000)">
                <g id="Rectangle-4" transform="translate(2.000000, 0.000000)">
                    <g id="不可用" transform="translate(247.000000, 17.000000)">
                        <path d="M48.9841931,13 C48.205708,13.4029872 48.6381997,14.4507541 48.5517014,14.8537414 C48.681449,14.8537414 48.7679473,14.8537414 48.8976947,14.6119489 C48.7679471,14.0477667 49.0706914,13.6447794 48.9841931,13 Z M46.1032084,16 L46.1032084,15.8209106 L46,15.8209106 C46,15.9999995 46.1032084,15.9999995 46.1032084,16 Z" id="Shape"></path>
                        <path d="M45.3552501,14.1612701 C43.6677442,14.5832462 42.9083666,14.7942343 41.3896113,15.0052225 C41.1786731,15.5537915 41.2630484,15.8491748 40.6302337,16.1867558 L40.2927326,15.4271987 L39.533355,15.7647796 C40.1661696,16.3133487 39.659918,16.1023606 39.8708561,16.5243368 C40.2083573,16.3977439 41.1364855,16.8619177 41.2630485,15.9757677 C41.8958631,16.5243368 43.1614926,15.6381867 43.6255566,15.8491748 C43.583369,15.8069772 43.5411814,15.7647796 43.5411814,15.7225819 C43.2036802,15.2162104 44.0474332,14.5832462 44.4271219,14.7098391 L44.5536849,15.0474201 C44.300559,15.5115938 43.583369,15.4271987 43.583369,15.7225819 C44.5114972,15.3850009 44.9333737,15.3850009 45.7771266,15.1740129 L45.3552501,14.1612701 L45.3552501,14.1612701 Z M64.2764095,16.271151 C64.6982859,16.3977439 65.6686018,15.7225819 66.1748536,16.1445582 C65.6264142,15.5959891 66.3014166,15.3006059 66.1748536,15.0896177 C65.1201624,15.5115938 64.6982859,15.4271987 64.3607849,15.5115938 C64.5717231,16.0601629 63.6435948,15.8491748 64.2764095,16.271151 Z M69.7186159,18.0012533 C70.0561171,17.8746604 69.9295542,17.6636723 70.056117,17.2416962 L69.5076777,17.4526843 L68.9592383,17.6636725 C68.9592383,18.0012534 69.2967395,17.8746606 69.7186159,18.0012533 L69.7186159,18.0012533 Z M70.3514306,18.2966367 C70.773307,18.0856486 70.4779936,17.7480677 70.9842453,17.7480677 C71.1108082,17.1994986 70.4358058,17.7480677 70.3514306,17.5370796 C70.4358058,17.7902652 70.1404924,17.6636725 70.3514306,18.2966367 Z M70.3514306,104 L70.89987,103.789012 C70.773307,103.578024 70.6889318,103.240443 70.4779936,103.367036 C70.8787762,103.789012 70.2248677,103.789012 70.3514306,104 L70.3514306,104 Z M29.4716013,9.03425938 C29.3450383,9.16085228 29.3450383,9.24524746 29.3450383,9.37184036 C29.5559765,9.24524746 29.6825395,9.16085228 29.7669148,8.9498642 C29.6825395,8.9076666 29.5559765,9.03425938 29.4716013,9.03425938 L29.4716013,9.03425938 Z M50.2098594,3.31790506 C50.2098594,3.21193676 50.3208866,3.1059683 50.3208866,3 C50.0988321,3.05298415 50.0988321,3.15895261 50.2098594,3.31790506 Z M0.931658473,52.9408815 C1.14259669,52.3923124 0.383219054,51.5483601 1.05822145,51.2529767 C0.973846215,50.9997911 0.509782035,50.9153957 0.341031435,50.6200125 C0.298843816,50.9575935 0.256656197,51.2951744 0.214468577,51.674953 C0.551969777,51.5483601 0.847283234,52.2235221 0.636345015,52.7298934 C0.425406796,52.7298934 0.298843816,52.3923124 0.00353023593,52.5189053 C-0.0386573833,52.5189053 0.298843816,53.2784625 0.931658473,52.9408815 L0.931658473,52.9408815 Z M0.350473515,50.6200125 L0.350473515,50.3246292 C0.461500733,50.3246292 0.350473515,50.3246292 0.350473515,50.2824315 C0.239446297,50.4090244 0.239446297,50.5356172 0.350473515,50.6200125 L0.350473515,50.6200125 Z M10.8568719,25.9766033 C10.7458447,26.0560795 10.7458447,26.2150321 10.6348172,26.2945083 C10.7458444,26.2150321 10.8568716,26.1355559 10.8568719,25.9766033 Z M45.2708749,3.54856906 C45.1443119,3.54856906 45.0599367,3.59076665 44.8911861,3.63296424 C45.0599367,3.71735942 45.2286873,3.71735942 45.3552501,3.67516183 L45.3130625,3.54856906 C45.4396255,3.54856906 45.5661883,3.59076665 45.6927513,3.67516183 C45.5661883,3.33758085 45.1443119,3.46417375 45.0599367,3.12659277 L45.2708749,3.54856906 C45.2286873,3.54856906 45.2286873,3.54856906 45.2708749,3.54856906 L45.2708749,3.54856906 Z" id="Shape"></path>
                        <path d="M0.178796568,45.1532436 C1.03701987,45.2785533 -0.164492804,44.4013857 0.951197592,44.8190845 C1.07993114,45.1532436 0.822464047,45.6544821 1.16575342,46.2810304 C1.16575342,46.2810304 2.3672661,47.0328883 1.59486507,47.3252775 C1.8094209,46.7822691 1.2515757,46.5734197 1.16575342,46.2810304 L0.0929741627,46.6987292 C0.0929741627,46.8240389 0.0929741627,46.9911185 0.135885303,47.1164281 C0.436263535,47.0328884 0.522085815,47.3670474 0.436263535,47.868286 C1.20866456,47.534127 0.56499708,47.0328884 0.865375187,46.9075786 L1.20866456,47.6594365 L0.436263535,47.868286 L0.135885303,47.1999679 C0.178796443,47.7847462 0.178796443,48.4112944 0.135885303,49.0796126 C0.264618849,49.2466921 0.908286327,49.0796126 0.693730501,49.4973114 C1.2515757,49.7061608 0.564996956,49.1631523 0.908286327,48.9543029 L1.46613153,49.1631523 C1.12284215,49.288462 1.8094209,49.9150102 0.908286327,49.7897006 C1.03701987,50.1238597 0.693730501,50.3327091 0.779552906,50.6250983 C1.12284228,50.4997886 1.42322039,51.1681067 2.06688786,50.9592573 C1.72359849,50.2073994 1.50904267,50.7504079 1.42322039,50.4162488 C1.76650976,50.2909392 1.07993101,49.664391 1.55195393,49.5808512 C1.55195393,49.5808512 1.68068748,49.9150103 2.10979913,49.7897006 C2.32435496,46.5316498 2.53891078,43.231829 3.82624574,40.3079372 L3.39713409,39.2636901 L4.16953511,38.929531 C3.74042346,37.8852839 5.45687019,37.2587356 4.94193614,35.7550199 L5.71433716,35.4208609 C5.58560361,34.2513042 6.05762653,33.2905969 6.48673818,32.2463497 C7.25913921,31.076793 7.55951744,29.8236965 8.41774074,29.0718386 C8.63229657,28.5288301 8.8468524,28.1111313 9.06140822,27.6098927 C9.83380925,27.2757336 9.19014177,26.7744951 10.1341875,26.3567963 C10.2200098,25.9390975 10.3916544,25.5213987 10.5632991,25.1454696 C10.520388,25.1454696 10.520388,25.1872394 10.4774769,25.1872396 C9.83380937,24.6442311 10.0483652,24.2265323 10.3487433,24.0176827 C10.5632991,24.4771514 10.6491215,24.7695406 10.6491215,24.9366202 C11.6360784,23.0987453 13.5241698,21.8038789 14.124926,20.007774 C18.1585758,16.8332629 20.8619794,13.3663626 25.5178411,10.73486 C25.732397,10.1918515 24.9599959,10.5260106 25.1745518,9.98300207 C26.4618868,9.43999357 28.0066889,8.81344536 29.5085798,8.10335732 C29.6373133,7.68565852 29.3798463,7.26795971 29.851869,7.35149943 C29.9806026,7.56034883 29.851869,7.76919823 29.851869,7.89450792 C32.3836279,6.68318136 35.0012092,5.43008483 37.9191687,4.59468722 C37.9191687,4.59468722 37.7904351,4.26052812 38.1337245,4.05167872 C38.4770139,4.80353662 38.6915697,4.26052812 38.777392,4.59468722 C40.064727,3.63397992 41.3949731,3.96813901 41.9099073,3.34159068 C42.4677525,3.55044008 44.8278667,3.46690037 44.398755,2.38088338 L44.7420443,3.13274128 C44.9995113,3.04920157 45.171156,2.96566173 45.3428007,2.8821219 C45.1282448,2.79858219 44.913689,2.6732725 44.8278667,2.46442309 L45.4715342,2.130264 L45.5573565,2.33911353 C46.3297575,2.00495443 45.7719123,1.79610503 46.1152017,1.7125652 C46.4584911,2.46442309 45.9006459,2.25557369 45.9864683,2.54796293 C46.3297576,2.42265324 46.5443135,2.75681233 46.6301358,3.09097142 C48.1320267,2.88212202 49.0331611,2.96566173 50.1917626,2.8821219 C50.1917626,2.8821219 50.0630291,2.54796281 50.4063185,2.33911353 C49.5480952,2.21380384 50.6208743,1.79610503 49.6339174,1.3784061 L50.2775851,1.1695567 L50.6208743,1.50371579 C50.7496078,1.62902548 50.9641637,1.7125652 50.9641637,1.7125652 C50.8354301,1.75433505 50.7066967,1.96318446 50.6637856,2.17203398 C50.7066967,2.17203398 50.7066967,2.13026412 50.7496078,2.130264 L51.307453,2.25557369 C51.307453,2.25557369 50.9641637,2.38088338 51.0928972,2.79858219 C51.4361866,2.6732725 51.4361866,2.6732725 51.6507424,3.00743159 C52.4231434,2.6732725 51.8652982,2.46442309 52.2085876,2.38088338 L52.4231434,3.13274128 C57.9586842,2.58973278 62.5287235,3.55044008 67.0773072,4.59468722 C66.9485737,4.26052812 67.2060408,3.75928961 67.6351524,3.96813889 C67.291863,4.09344858 67.8497082,4.5946871 67.6351524,4.80353662 C67.7638859,4.80353662 67.8497082,4.67822693 67.9784418,4.67822693 C68.1071753,3.84282932 67.6351524,2.79858219 67.2060408,1.7125652 C66.4336397,2.04672429 66.2190839,1.29486639 65.2750382,2.04672429 L64.9317488,1.29486639 C61.0268326,0.877167587 57.4652057,0.250619259 53.6246561,0.12530969 C53.2813667,0.25061938 53.4959226,0.9607073 53.0668109,0.751857897 L52.8522551,0 C51.4361866,0.543008495 49.9342957,-0.12530969 48.6040495,0.835397731 C49.0331611,0.710088041 49.0331611,0.710088041 49.1618947,1.04424713 C49.1618947,1.16955682 49.0331611,1.16955682 48.9473388,1.1695567 C49.5910063,1.29486639 49.5910063,1.29486639 49.9342957,1.9214146 C49.5910063,2.04672429 49.3764505,1.7125652 48.8615164,1.29486639 C48.3036712,1.7125652 47.7887372,2.04672429 47.6600037,2.46442309 C47.5312702,2.04672429 47.6600037,1.83787489 47.7887373,1.62902548 L47.7887373,1.7125652 C47.7887373,1.7125652 48.0032931,1.50371579 48.2178489,1.3784061 L48.4324048,1.3784061 C48.3036712,1.04424701 48.6469606,0.83539761 48.3036713,0.208849402 C46.0293794,0.751857897 43.9696434,0.751857897 41.3520621,1.3784061 C41.566618,1.7125652 41.6953515,2.00495431 41.3520621,2.130264 C41.4807957,1.29486639 40.7083947,1.58725551 40.064727,1.79610503 C40.1934606,2.13026412 40.4080164,2.54796293 39.6356154,2.75681233 L39.2065037,1.7125652 C37.7046128,1.9214146 37.0180342,3.38336054 36.1598108,2.46442309 C35.1728539,3.21628099 35.0870315,2.8821219 34.5291865,3.50867023 C33.5422296,3.09097142 31.4824935,4.26052812 30.066425,4.88707633 C29.9376915,5.72247394 29.6373133,5.84778363 30.1951584,6.05663303 C30.1951584,6.05663303 29.6373132,6.68318124 29.4227574,6.39079213 C29.2940238,6.05663303 29.6373132,5.84778363 29.5514909,5.55539452 C27.277199,6.09840289 26.504798,7.14265002 24.3592396,7.97804763 C24.4879731,8.31220673 24.1446838,8.52105613 24.2305062,8.81344536 C23.0289935,8.93875505 21.1838132,10.4007009 20.4543233,11.5702576 C19.6819223,11.9044167 19.8964781,11.3614082 19.5961,11.444948 C18.6091432,12.1968059 17.4076305,13.1157433 16.4635848,13.8676012 C16.5923183,14.2017603 17.1072523,14.4106097 16.806874,14.6194591 C16.034473,13.6587518 15.7340948,15.0371579 15.3908055,15.1624675 C15.3908055,15.1624675 16.034473,15.705476 15.7340949,15.9143254 C15.3908055,16.1231748 15.6053614,14.7447687 15.0904273,15.371317 C14.8758715,15.9143255 14.9616938,16.2067146 14.6613156,16.3320243 C8.07445137,22.5766218 4.38409094,29.6983869 1.68068735,37.2169658 C1.8094209,37.5511249 2.53891066,37.3422755 2.6676442,37.6346646 C2.02397672,37.9688237 2.53891066,38.1776731 2.10979913,38.2612129 C1.98106558,37.9270538 1.8952433,37.6346647 1.55195393,37.7182044 C1.76650976,37.9270538 1.98106558,38.3447526 1.76650976,38.4700623 C1.63777621,38.595372 1.55195393,38.595372 1.42322039,38.5953719 C1.42322039,38.5953719 1.55195393,38.8042213 1.55195393,39.0130708 C1.68068748,39.3472299 0.994108733,39.639619 1.12284215,39.9737781 L1.46613153,40.6003263 C1.46613153,40.6003263 0.693730501,40.9344854 0.908286327,41.2268745 C0.908286327,41.2268745 1.2515757,41.9787324 1.03701987,42.3964314 C0.479174675,43.0229796 0.822464047,42.9394399 0.607908221,43.3571387 C0.393352394,43.7748375 0.0500630224,43.9836869 0.0500630224,43.9836869 C-0.164492804,44.5266954 0.393352394,44.7355448 0.178796568,45.1532436 L0.178796568,45.1532436 Z M57.8299506,1.87964474 C57.6153948,1.67079534 57.2721054,1.33663625 57.186283,1.12778685 C57.6153947,0.626548207 57.5295724,1.58725551 57.8299506,1.87964474 Z M56.8935226,0.543008495 C57.0289874,0.877167587 57.2547619,1.1695567 56.7580578,1.3784061 C56.7580578,1.1695567 56.667748,0.626548207 56.8935226,0.543008495 L56.8935226,0.543008495 Z M55.0407246,0.835397731 C55.384014,0.710088041 55.5985698,1.04424713 55.6843922,1.3784061 L54.9119912,1.67079534 C54.8261689,1.3784061 55.2552806,1.58725563 55.0407246,0.835397731 L55.0407246,0.835397731 Z M51.5434644,1.67079534 C51.7580203,1.67079534 51.9725761,1.79610503 52.1013096,2.00495443 L51.7580203,2.130264 C51.8867538,1.79610491 51.6292867,1.79610491 51.414731,1.79610503 C51.414731,1.79610503 51.5434646,1.79610503 51.5434644,1.67079534 Z M32.3407168,6.14017287 C32.3407168,6.14017287 32.5552726,5.59716437 31.9974276,5.38831497 C32.7912842,5.17946557 32.8771066,6.34902227 32.3407168,6.14017287 Z M4.16953511,37.0081164 C4.29826866,37.3422755 3.74042346,37.9688237 3.39713409,37.3422755 L4.16953511,37.0081164 Z" id="Shape"></path>
                        <path d="M0,47.7661887 L0.110891578,47.9849255 C0.110891578,47.8755573 0.110891578,47.766189 0,47.7661887 Z M50.3396362,3.54439707 C50.8116487,3.46064373 50.4340387,3.20938347 50.2452338,3 C50.2452338,3.20938347 50.2452338,3.41876694 50.3396362,3.54439707 Z M66.5611078,5.14484711 C66.646197,5.38033233 66.8589204,5.38033233 66.9865543,5.38033233 C67.1141883,5.23904114 66.8589203,4.90936189 66.5611078,5.14484711 Z M0.425446492,54.8642888 C0.765803735,54.7386587 0.978526981,54.2361384 0.850892984,53.9011248 C0.127633873,54.1105083 -0.127633997,54.6549054 0.425446492,54.8642888 Z M104.893839,63.4490116 C104.893839,63.4490116 105.021473,63.7840252 105.234196,64.2027922 L106,63.8677786 C105.787277,63.4490116 105.234196,63.2396282 104.893839,63.4490116 L104.893839,63.4490116 Z M87.6845274,93.3489731 C87.4718042,93.8933701 87.4718042,93.8933701 87.5568934,94.1865069 L88.3226972,93.8514935 L88.4503312,94.1865069 C88.7906884,94.0608768 89.0034116,93.5583565 88.8757776,93.2233429 C88.4503312,93.3489731 88.0248847,93.1395896 87.6845274,93.3489731 L87.6845274,93.3489731 Z M89.6805855,92.6370692 L89.4163466,92.6370692 C89.2401875,92.8558057 89.5044261,92.6370692 89.6805855,92.6370692 Z M73.5597029,102.143079 C73.6873369,102.478093 73.9000602,102.89686 73.2193457,103.39938 C73.3469797,103.734394 73.5597029,104.153161 73.8575156,103.943777 C73.5171583,103.189997 74.2829621,102.980613 74.4956853,102.478093 C73.9851494,103.189997 74.3255067,101.808066 73.5597029,102.143079 L73.5597029,102.143079 Z M75.261489,102.268709 L74.9211318,102.39434 L75.261489,103.14812 C75.4742123,102.603723 75.389123,103.483134 75.6018463,103.02249 C75.0487658,102.77123 75.389123,102.561846 75.261489,102.268709 Z M81.4730082,98.2485466 C81.1326509,98.3741767 81.3453742,97.913533 80.6221152,98.1229165 C81.2602849,98.6673135 80.4944812,98.9604503 80.8348384,99.5886009 L81.6006422,99.2535873 C81.3453743,99.0860805 81.2177403,98.6673135 81.4730082,98.2485466 L81.4730082,98.2485466 Z M89.5139474,92.6370692 C89.7266706,92.8464527 89.5139474,93.6839867 90.0670279,93.1814663 C90.0670279,92.7208226 89.7266706,92.6370692 89.5139474,92.6370692 Z M97.8314268,82.0213266 C97.7037928,82.8588605 97.9590608,83.1938741 98.4695966,82.5657237 L98.1292394,81.8119431 L97.8314268,82.0213266 L97.8314268,82.0213266 Z M95.6616496,84.868942 L96.2147301,86.250873 C96.5550873,86.1252429 96.4274533,85.706476 96.6401766,85.2877089 C96.2147301,85.0783254 96.4274533,84.5339284 95.6616496,84.868942 Z M92.1304435,90.2919742 C92.2580775,90.6269878 92.7686133,90.8363713 93.1089705,90.7107412 L92.7686133,89.9569606 L92.1304435,90.2919742 Z M104.085491,66.2128737 C104.17058,66.5060106 103.6175,66.296627 103.957857,67.0504075 C104.72366,66.7153939 104.085491,66.2128737 104.085491,66.2128737 Z" id="Shape"></path>
                        <path d="M104.586722,67.0144364 C105.141078,67.2254303 105.226364,67.5630206 105.226364,67.5630205 C105.354292,67.9006107 105.01315,68.1116046 105.098435,68.4069961 C105.866005,68.0694058 104.970507,67.2254303 105.866005,67.2254303 C105.226364,66.6768462 106.079219,66.6768462 105.993934,66.3814547 C105.439578,66.2970572 105.226364,66.7190449 104.586722,67.0144364 Z M96.1860914,87.9028317 L95.4185211,88.240422 L95.7596635,89 L96.5272338,88.6624097 C96.3993054,88.240422 96.3993054,87.3331482 96.1860914,87.9028317 Z M39.4072123,16.1649083 L38,16.7134924 C38.1279284,17.0510827 38.5543563,17.2620766 38.3411424,17.3464741 C38.4690708,17.4730705 38.5543563,17.6840643 38.5543563,18.1060521 L39.9615686,17.557468 C39.8336402,17.2198777 39.1087128,17.4308716 38.9807842,17.1354802 C39.1939982,16.5868961 39.4924978,16.5024986 39.4072123,16.1649083 L39.4072123,16.1649083 Z M47.5946285,14.0549694 L48.1489848,15.4475291 C49.2150547,15.0255413 49.8546966,15.5741254 50.3237673,14.6035535 C51.0913375,15.5741254 52.4985497,14.9411438 53.6499052,14.9411438 C53.6499052,14.9411438 53.0102634,14.3925597 53.3087629,14.1815658 C53.8631192,14.3925597 54.1616187,14.3081622 54.2895471,14.6035535 C53.5219768,14.9411438 53.7351908,14.3925597 53.4366912,14.4769572 C53.7778335,15.2365352 54.6306893,15.2365352 55.6114737,14.8145474 C55.4835453,14.4769572 55.7394021,13.9705719 55.739402,13.9705719 C55.3982596,14.0971683 55.3982596,14.0971683 55.1850457,13.759578 L54.8439034,13 C54.2895471,13.6329816 53.1381917,13.759578 52.4559069,13.1265963 C52.1147645,13.2531926 52.242693,13.6751804 52.242693,13.6751804 C52.029479,13.0421988 51.0486948,13.6751804 50.8354808,14.0971681 C50.9634092,13.1265963 49.6414826,14.7301498 48.9165551,14.6457523 C48.6606984,14.0549694 48.4048416,14.0549694 48.4048416,13.8439755 C48.2769131,13.8439755 47.9784137,13.5907829 47.5946285,14.0549694 L47.5946285,14.0549694 Z M55.1637243,13.928373 C55.1637243,14.0549694 55.3769382,14.2659633 55.1637243,14.3503609 C55.1637243,14.3503609 54.8225819,14.4769573 54.609368,14.139367 L55.1637243,13.928373 L55.1637243,13.928373 Z" id="Shape"></path>
                        <path d="M49.2236185,13.2723223 C49.0000003,13.4517338 49.0000003,13.6311457 49,13.8105575 C49.1118091,13.7208518 49.2236182,13.631146 49.2236185,13.2723223 Z M60.3975347,13.3935525 C59.6764253,13.878473 59.2758089,12.3024814 58.4745763,13.3935525 C59.0755008,14.1815483 59.3959939,13.999703 59.8767334,14.3027783 C59.6764253,15.2120042 59.3559322,15.3938494 59.4761171,15.8181549 C60.1972265,15.3332344 60.5978428,15.6363097 61.0785824,16 C61.2788906,15.2120042 61.5993837,15.0907741 62,14.9089289 C61.4791988,14.6058536 61.4791988,14.6058536 61.6795069,13.8178578 C60.9583975,14.3027783 61.1587057,13.5147825 60.8782743,13.6360127 C60.8782743,13.6360127 60.6779661,14.4240086 60.7580894,14.8483139 C59.9969183,14.7270838 60.5177196,13.8178578 60.3975347,13.3935525 L60.3975347,13.3935525 Z" id="Shape"></path>
                        <path d="M59.2851792,13 C58.4878155,13.3417615 58.3992196,13 57.6018559,13.3417614 C57.9562397,14.1107247 58.4878154,13.469922 58.3992195,14.3243256 L57.7347498,14.5379265 L58.0891337,15.3068898 C58.6650075,15.5204907 58.3106236,14.7515274 58.8864973,14.1107247 C59.2408812,14.879688 59.9053509,14.5379265 60.4369265,14.7515275 C60.6584164,14.1961651 59.418073,14.3243257 59.6395629,13.7689633 C59.6395629,13.7262431 59.285179,13.8544036 59.2851792,13 L59.2851792,13 Z M68.7206487,15.9476926 C68.6763508,15.9904128 68.6320528,15.9904128 68.5877548,16.0331329 C68.6320527,16.0331329 68.6763507,16.0758531 68.6763507,16.0758531 C68.6320527,16.4603347 68.4991587,16.8875365 68.6763507,17.1865779 L69.1193306,17.0156971 L68.7649467,16.1185733 C69.2522244,16.2894541 69.6066083,16.503055 69.8280982,16.8020962 C69.4737143,16.9302568 69.2522244,17.4428989 69.3851184,17.7846604 C69.7395022,17.6564998 70.4925679,17.3574586 70.7140578,18.1264219 C70.9355477,17.5710595 71.1570376,17.1438577 70.8469517,16.4176146 C70.4925678,17.2720182 69.6509062,15.4350504 68.7206487,15.9476926 L68.7206487,15.9476926 Z M63.8921689,108.500969 C63.8921689,108.71457 63.8921689,109.269933 64.3351488,108.842731 C64.2022548,108.62913 63.9807649,108.62913 63.8921689,108.500969 Z M38,107.069843 C38,107.198004 38.132894,107.283444 38.132894,107.411605 C38.4429799,107.283444 38.6644698,107.283444 38.8859597,107.411605 C38.6644698,106.856242 38.088596,107.411605 38,107.069843 Z" id="Shape"></path>
                        <path d="M70.7013801,104.01496 C70.4027602,104.146145 70.1468004,104.189873 69.9335006,104.321059 C69.9335006,104.233602 69.8908406,104.189873 69.8908406,104.102417 C69.6775408,104.189873 69.4642409,104.233602 69.250941,104.27733 C69.293601,104.233602 69.293601,104.146145 69.293601,104.058688 C69.0803011,103.708861 68.5257214,103.708861 68.2271017,103.927503 C68.4404015,104.189873 68.6537014,104.364787 68.8243413,104.408516 C68.7816814,104.408516 68.7390214,104.452244 68.6963613,104.452244 L68.6537014,104.802071 L68.4404015,104.802071 C68.2271017,104.583429 68.0138018,104.670886 67.587202,104.452244 C67.6725219,104.714614 67.5018821,104.889528 67.4592221,105.151899 C67.3312422,105.10817 67.2032623,105.10817 67.1606022,105.020713 C67.1606022,104.889528 67.1606022,104.670886 66.9473024,104.583429 C66.3927227,104.452244 65.7528231,105.589183 65.3262234,104.933257 C65.1982434,105.064442 65.1129235,105.283084 65.1129234,105.501726 L64.5583438,105.720368 C64.5583438,105.501726 64.4303639,105.283084 64.7716437,105.283084 C64.8996237,104.714615 64.4303639,105.501726 64.217064,105.151899 L64.3450438,104.583429 C64.5583437,104.933257 64.8996235,104.146145 65.1129234,104.933257 C65.4542032,104.714615 65.6675031,105.064442 65.966123,104.714615 C65.7528231,104.364787 66.3074028,103.927503 65.838143,103.271577 C65.2835633,103.708861 65.710163,103.840046 65.4968632,104.058688 C65.2835633,103.708861 64.9422835,104.495972 64.6436637,104.27733 C64.6436637,104.27733 64.9849436,104.058688 64.7716437,103.708861 C61.4441657,104.495972 58.0740276,105.239356 54.8531994,104.802071 L54,105.589183 L53.5734003,105.020713 C52.7202008,105.807825 51.5257214,104.233602 50.3312422,105.239356 L49.9046424,104.670886 C48.838143,105.10817 47.7289837,105.020714 46.6624843,104.889528 C45.382685,104.452244 43.9749059,104.539701 42.9937265,103.883775 C42.4391468,103.752589 41.927227,103.752589 41.3726473,103.665132 C40.9460476,103.096663 40.5194479,103.883774 39.8795483,102.878021 C37.1919699,103.096663 34.9309912,100.997699 32.4567126,100.997699 C28.1480552,98.0241658 23.9247177,96.4499425 20.02133,92.6892981 C19.4667503,92.5581128 19.89335,93.2577676 19.4667503,93.1265823 C18.6135508,92.0333717 17.5470514,90.8089758 16.3525721,89.4971232 C16.2672522,89.4971232 16.1819322,89.5408516 16.1392723,89.58458 C16.0539524,89.5408516 15.9259724,89.4971232 15.8406524,89.4971232 L15.9686324,89.6283085 C15.7126725,89.6720369 15.5846926,89.6720369 15.6273525,89.4096663 C15.7553325,89.278481 15.9686324,89.1910242 16.1819322,89.2784811 C14.3475532,87.310702 12.2998745,84.9493672 10.6787954,82.5443039 C10.6787954,82.5443039 10.3375156,82.762946 10.1242157,82.4131186 C10.6787954,81.9758344 10.2521957,81.844649 10.4654955,81.6260069 C9.18569623,80.6202532 9.05771639,79.3084005 8.28983684,78.8711163 C8.41781681,78.3026467 7.52195729,75.9850403 6.58343782,76.772152 L7.13801751,76.3348677 C6.71141779,75.7663981 6.37013796,75.4602993 6.49811793,74.8918297 C6.19949805,75.1104718 6.37013796,75.4165709 6.19949805,75.635213 C6.37013796,75.9850404 6.37013796,76.466053 6.07151808,76.6846951 L5.64491836,76.1162256 L5.98619819,75.8975835 C5.55959846,75.3291139 5.4316185,75.7663981 5.21831864,75.547756 C5.77289833,75.1104718 5.77289833,75.6789414 6.07151808,75.3291139 C5.85821822,74.9792865 6.19949805,74.7606444 6.41279791,74.5420023 C5.77289833,73.0989644 5.55959846,72.2243958 5.13299874,71.1311853 C5.13299874,71.1311853 4.79171891,71.3498274 4.57841905,71 C4.79171891,71.8745684 4.06649931,70.9125432 3.93851934,71.9620253 C4.02383924,71.8745685 4.10915926,71.7871116 4.32245912,71.6121979 C4.53575898,71.9620253 4.32245912,72.1806674 3.98117941,72.8365939 C4.621079,73.1864213 5.04767885,73.6237055 5.47427844,73.7111623 C4.91969875,74.1484465 4.40777901,73.579977 4.06649931,73.8423476 C3.42659972,73.7111623 4.27979917,73.4925202 4.06649931,73.1864212 C3.72521948,73.4050633 3.51191962,73.0552359 3,73.6237055 C4.19447927,75.7226699 4.70639902,77.7341773 6.11417815,80.0517837 C6.45545798,79.8331416 6.66875784,79.6144995 6.9673776,79.8331416 C6.11417815,80.0517837 6.62609777,80.6202532 7.09535757,81.2761795 C7.43663739,81.0575374 7.64993726,80.8388953 8.16185687,81.4073648 L7.30865743,82.1944765 C7.94855701,83.6375144 9.56963613,83.8561565 8.92973643,84.8619102 C9.91091584,85.5178365 9.69761598,85.7364787 10.4228356,86.173763 C10.2948556,87.2669736 12.0439146,88.8411968 13.025094,90.0218643 C13.8782934,89.8032222 14.0915934,90.1530496 14.0915934,89.58458 C14.0915934,89.58458 14.859473,89.9344074 14.5181931,90.1530495 C14.1769133,90.3716916 13.9636135,90.0218642 13.6649937,90.3716916 C14.859473,92.470656 16.1392723,92.8204833 17.5470514,94.7008056 C17.8883312,94.4821635 18.1016311,94.8319909 18.4002509,94.4821635 C18.8268506,95.5753741 20.8745294,96.9309551 22.1543287,97.3682395 C22.5809284,97.936709 22.0263487,97.936709 22.3676286,98.2428079 C23.348808,98.8987342 24.6286073,99.9044879 25.6097867,100.560414 C25.9510665,100.341772 25.9510665,99.7733027 26.1643664,100.12313 C25.5244668,101.128884 26.9322459,100.997699 27.1455458,101.347526 C27.1455458,101.347526 27.4868256,100.560414 27.7001255,100.910242 C27.9134253,101.260069 26.6336261,101.347526 27.3588457,101.697353 C27.9134253,101.828539 28.2120451,101.478711 28.425345,101.828539 C31.2409034,103.359033 34.0138017,104.583429 36.9573401,105.457998 C37.3839398,105.589183 37.8105395,105.67664 38.2371392,105.895282 C38.2371392,106.026467 38.1091593,106.026467 38.0238394,106.113924 C38.3651192,106.245109 38.6637389,106.463752 39.0050188,106.551208 C38.8770388,106.332566 38.8770388,106.201381 38.8770388,105.982739 C39.0050188,105.982739 39.0903387,106.113924 39.3036387,106.113924 L39.4316185,106.332566 C41.2659975,106.901036 43.1856962,107.644419 45.2333751,107.644419 C45.2333751,107.425777 45.2333751,107.294592 45.361355,107.207135 C45.9159347,107.33832 46.4278545,107.33832 46.8544542,107.425777 C46.8544542,107.644419 46.9824342,107.863061 47.0677541,108.212888 C48.0489335,107.863061 48.4755332,107.994246 48.9874529,108.431531 C48.859473,108.300345 48.7741531,108.081703 48.859473,107.863061 C49.2007528,107.731876 49.4140527,108.081703 49.6273525,108.868815 C50.693852,108.431531 52.0163111,108.73763 53.1681305,108.650173 C52.9548307,108.081703 52.400251,108.081703 52.186951,107.994246 L52.314931,107.994246 C52.4429109,107.863061 52.4429109,107.863061 52.4429109,107.775604 C52.6562108,107.775604 52.6562108,107.906789 52.8695106,107.994246 L52.9974906,107.994246 L52.9974906,107.775604 C53.1254706,107.556962 53.3387704,107.425777 53.4240903,107.556962 C53.5520703,107.688147 53.5520703,107.775604 53.5520702,107.775604 C53.5520702,107.644419 53.6800501,107.644419 53.97867,107.556962 L54.1066499,107.556962 C54.2346298,107.775604 54.3199497,107.906789 54.3199497,108.212888 C54.3199497,108.212888 54.1919698,107.863061 53.7653702,107.994246 C54.10665,108.781358 54.4052697,108.562716 54.5332497,109 C55.0878294,108.344074 55.727729,108.868815 56.4529486,108.650173 C56.2396487,108.081703 56.3249686,107.863061 56.4529486,107.644419 C56.4529486,107.644419 56.5809286,107.513234 56.6662485,107.513234 C56.8795483,107.644419 57.0075283,107.731876 57.2208281,108.300345 L57.9887076,107.950518 C57.7754077,108.518987 58.1166875,108.300345 58.3299874,108.73763 C59.3964868,108.300345 60.5909661,108.16916 61.7854454,108.16916 C61.6574654,107.819333 61.9134253,107.294592 61.6574654,106.944764 L61.7854454,106.857307 C61.8281053,106.944764 61.9134253,106.944764 61.9560853,106.944764 C61.9560853,106.901036 61.9134253,106.857307 61.9134253,106.813579 L62.0840653,106.726122 L62.2120451,106.944764 C62.425345,106.813579 62.6386448,106.813579 62.7666248,106.726122 C62.7666248,106.857307 62.8946048,107.075949 62.8946048,107.294592 C62.8946048,107.294592 61.9134253,108.081703 62.3400251,107.950518 C63.4065245,107.513234 63.6198244,108.300345 64.259724,107.60069 C64.131744,107.250863 63.9184441,106.813579 64.131744,106.376295 L63.7904643,106.376295 C64.0037641,106.245109 64.217064,106.245109 64.4303639,106.245109 C64.6436637,106.682394 65.1982434,107.33832 64.7716437,107.775604 C65.3262234,107.994246 65.7528231,108.212888 66.4780426,107.906789 C66.1367628,107.119678 65.9234629,107.688147 65.838143,107.33832 C66.3927227,107.33832 66.9046424,106.988493 67.3312422,106.901036 C67.1179423,107.119678 67.1179423,107.469505 67.2032622,107.688147 C67.4165621,107.469505 67.6298619,107.33832 67.8431619,107.250863 L67.7151819,106.901036 C67.8431619,106.901036 67.8431619,107.032221 67.8431619,107.250863 C68.6963613,106.813579 69.6775409,106.463752 69.6775408,105.807825 L70.0188206,106.594937 C70.1468006,106.463751 70.1468006,106.376295 70.1468004,106.026467 L70.4880803,105.895282 C70.2747804,105.457998 70.91468,105.239356 70.8293601,104.889528 C70.6160602,104.758343 70.2747804,105.10817 70.1894605,105.545455 C70.1041406,105.10817 70.0614805,104.802071 69.9761606,104.539701 C70.1468006,104.670886 70.4454203,104.802071 71,104.802071 C70.4667503,104.583429 70.4667503,104.583429 70.7013801,104.01496 L70.7013801,104.01496 Z M13.131744,87.7917146 C13.0464241,87.7917146 12.6624843,87.7917146 12.5771643,88.2289988 C12.1292346,87.7042577 13.2170639,87.2669735 13.131744,87.7917146 Z M37.1279798,103.708861 C37.6825595,103.140391 37.9811793,102.921749 38.1944793,103.271577 C37.8958594,104.058688 37.3412798,104.058688 37.1279798,103.708861 Z M52.0376412,106.376295 L51.6110413,105.807825 C51.8243412,105.589183 52.5495608,105.93901 52.0376412,106.376295 Z M53.1041405,107.597377 L53.1041405,107.272727 C53.1041405,107.272727 53.2984263,107.272727 53.42795,107.467517 C53.2984263,107.467517 53.1041405,107.597377 53.1041405,107.597377 Z M58.6925972,107.403913 C59.1191969,107.535098 59.4604768,107.75374 59.4604768,107.75374 C59.4604768,107.884925 59.5884567,108.103567 59.5884567,108.191024 C58.9058971,108.497123 58.8205772,108.059839 58.6925972,107.403913 Z M61.8494353,105.589183 C61.7214553,105.589183 61.7214553,105.720368 61.6361354,105.720368 C61.7641154,105.370541 62.0627352,104.933257 62.404015,105.283084 C62.0627352,105.283084 61.9347553,105.370541 61.8494353,105.589183 Z M62.7247928,106.463752 L62.4958249,106.682394 C62.266857,106.463752 62.4958249,106.245109 62.7247928,106.245109 L62.7247928,106.463752 Z M62.7452948,105.93901 L62.7026349,105.93901 C62.361355,105.93901 62.1480552,106.157653 62.0627353,106.070196 L62.0627353,105.93901 L62.6173149,105.501726 L62.7452948,105.720368 L62.7452948,105.93901 Z M66.4567126,105.807825 C66.2434128,105.93901 66.0301129,105.67664 65.9021329,105.457998 C66.0301129,105.326812 66.1154328,105.239356 66.2434128,105.239356 C66.4567126,105.501726 66.7979924,105.720368 66.4567126,105.807825 Z M67.651192,105.283084 C67.6085321,105.283084 67.5658721,105.239356 67.565872,105.239356 C67.7791719,104.933257 67.8218318,104.889528 68.1204517,104.933257 C67.9498118,105.020713 67.8218318,105.10817 67.651192,105.283084 Z" id="Shape"></path>
                        <path d="M7.11206751,76.8761699 L7.22318015,76.7667397 C7.22318015,76.7667397 7.22318015,76.6573095 7.11206751,76.6573095 L7.11206751,76.8761699 Z M4.91071334,71.7881196 C5.03771458,71.9574828 5.29171696,71.9574828 5.58805303,71.915142 C5.54571933,71.915142 5.50338562,71.915142 5.46105179,71.8728013 L5.24938312,71.534075 C5.24938312,71.534075 5.46105179,71.8728013 5.7997217,71.6610974 C5.46105179,71.1106672 5.46105179,71.1106672 5.7997217,70.8989633 C5.37638437,70.3485331 5.24938312,70.7719409 5.03771446,70.560237 L5.58805303,70.0098068 C3.42903257,64.9712539 3.13269637,60.3984496 2.79402646,55.7621341 C2.79402646,55.7621341 2.75169275,55.7621341 2.75169275,55.8044748 C2.75169275,55.6774524 2.70935904,55.5504302 2.62469162,55.4234078 C2.62469162,55.5080893 2.45535667,55.6774524 2.54002408,55.8468156 C2.24368788,55.9314971 1.9473518,55.8468156 2.03201922,55.4234078 C2.24368788,55.7621341 2.58235779,55 2.79402646,55.2117039 C2.66702521,55.0846815 2.66702521,55 2.58235779,55 C1.73568314,55.2117039 0.889008362,55.8468156 0,56.6089496 C0.423337327,57.1593798 -0.127001247,57.6674692 0.846674654,58.3025809 L0.71967353,58.4296033 L0.381003619,58.4296033 C0.381003619,58.5566257 0.508004866,58.5566257 0.508004866,58.5566255 L0.29633608,58.7683294 C0.93134207,62.6213405 1.35467952,66.1356253 2.32835542,69.798103 C2.54002408,70.0098068 3.17503007,69.5863991 3.09036266,70.1368292 L2.54002408,70.560237 C3.51369999,71.7457789 3.30203132,73.3547286 4.57204343,74.2862257 C4.36037476,73.9474994 4.36037476,73.9474994 4.69904455,73.7357955 C4.78371197,73.7357955 4.78371197,73.7781363 4.86837951,73.8204772 C4.8260458,73.9051587 4.86837951,73.9474995 4.95304704,73.9474995 C4.95304704,73.9474995 4.95304704,73.8204772 5.08004817,73.8204772 C5.08004817,73.8204772 4.95304692,73.8204772 4.95304704,73.6934548 C4.91071334,73.3547285 4.86837963,73.2277062 4.99538075,73.0583431 L4.57204343,72.5079129 C4.91071334,72.3385498 4.91071334,71.7881196 4.91071334,71.7881196 L4.91071334,71.7881196 Z M2.83636029,65.5851952 C2.70935904,65.7968991 2.49769038,66.2203069 2.28602171,66.3473293 C1.65101572,66.1356254 2.49769038,66.008603 2.83636029,65.5851952 Z M1.77801685,66.8554187 C2.11668676,66.6437148 2.32835542,66.4320109 2.62469162,66.6437147 C2.41302296,66.7707371 1.86268439,67.0671225 1.77801685,66.8554187 Z M2.62469162,68.6125611 C2.41302296,68.2738348 2.75169287,68.0621309 2.96336141,67.850427 L3.38669886,68.4008572 C3.1750302,68.6972427 3.1750302,68.1679829 2.62469162,68.6125611 L2.62469162,68.6125611 Z M4.44504218,72.0421644 C4.44504218,71.4917342 4.23337352,71.1530079 4.57204343,70.941304 L4.78371209,71.2800303 C4.23337352,71.1530079 4.65671084,71.8304605 4.44504218,72.0421644 L4.44504218,72.0421644 Z M4.99538075,73.1677733 L4.99538075,73.0583431 L4.99538075,73.1677733 Z M38,106 C38,105.872766 37.6770241,105.681915 37.6770244,105.681915 L38,106 Z" id="Shape"></path>
                        <path d="M8.64308678,69.4431366 C8.47159695,69.1957079 8.25723469,69.6080892 8,69.6905655 C8.25723469,69.6080893 8.5144695,69.525613 8.64308678,69.4431366 Z M66.2851018,13.8747516 L65.9421221,13.1324652 C65.170418,13.4623703 65.3847802,12.9262745 65.0846731,13.0087507 C64.8703108,13.5448465 65.642015,13.2149414 65.7277599,13.5448465 C65.8563773,13.8747516 65.5133976,14.0809422 65.5991426,14.3696091 C65.9421223,14.2458946 65.72776,14.6995142 66.2422294,14.9057048 C67.0139336,14.5757997 67.0996784,15.0294193 67.4426581,14.7819904 C67.7856377,14.658276 67.5712755,13.9572278 68,14.1634184 L67.6570203,13.421132 C67.4855305,13.8747514 66.8424437,13.2561795 66.2851018,13.8747516 L66.2851018,13.8747516 Z M23.1125402,76 C23.4555199,75.2577136 23.4555199,75.7938093 23.669882,75.5876186 C23.4555198,75.2577135 23.5412646,74.2267602 22.6838156,74.4329508 C23.0267952,73.6906644 21.869239,72.7834255 21.8263665,72.2473298 L21.869239,72.2473298 C21.2261522,71.5050434 21.2261522,71.0101858 20.6688103,70.2678994 L19.8971061,71.0101858 C20.7545551,72.6597112 21.311897,73.1958069 21.9549839,74.6391415 C22.5123259,74.7628559 22.812433,74.4329508 23.2411575,75.0515229 L22.6838156,75.4639042 L23.1125402,76 Z M20.5401929,71.8349484 L20.8831725,71.6287578 C21.397642,71.7524722 21.6120043,72.3298061 21.8263665,72.288568 C21.4833869,72.9896163 20.4115756,72.3710442 20.5401929,71.8349484 Z" id="Shape"></path>
                        <path d="M21,73.877635 C20.7866666,73.7455413 20.7866666,73.657479 20.6444445,73.657479 C20.0755555,73.7895726 19.72,73.5253853 19.2222223,73.7895725 C19.9333334,74.3179471 20.4311113,73.6574788 21,73.877635 Z M13,49 L13.5688889,49.4403121 C13.5688889,49.5724058 13.5688889,49.5724058 13.7822223,49.7925618 L13.7822223,50.1448116 C14.1377779,49.9246555 13.7822223,49.7044995 13.7822223,49.2641872 L13.5688889,49.1320937 C13.5688889,49.0880625 13.64,49.0440313 13.64,49 L13,49 L13,49 Z" id="Shape"></path>
                        <path d="M14.6492177,48.9724138 C14.6492177,48.9724138 15.1276164,48.4658307 15.3450706,48.5924765 C16.5193222,45.7218391 16.6063038,42.5556949 18.3894266,39.6850575 C17.9545187,39.6850575 17.8240462,39.3473354 17.8240463,39.0518287 C18.0415003,38.9251828 18.1719728,38.9251828 18.1719727,38.9251828 C18.9548071,38.5874608 19.1722611,38.1653082 18.8243348,37.4476489 C19.9116049,37.0254963 19.8246232,35.8434692 20.7814209,35.0835946 C20.085568,34.1970741 20.5639669,33.9437826 20.2595312,32.8884012 C20.520476,32.7195401 20.6944392,32.3396028 20.9118932,32.6351097 C20.7814207,33.4794148 20.4769852,33.6060606 20.7814209,34.32372 C23.2169057,30.9042842 24.8695563,27.907001 28.6967468,25.1630094 C28.9142008,24.6142111 30.001471,24.1920585 30.0014708,23.4743991 C30.1319433,23.8121212 30.1319433,23.8121212 30.5668513,23.6854754 C31.6541214,22.4190177 34.3940418,21.7857889 35.0898947,20.2660397 C36.6120728,20.0549634 38.4821772,18.4507836 40.3522818,17.8175549 C40.308791,17.6909091 40.1783186,17.5642634 40.0478462,17.4798328 L40.3522818,17.2687566 C40.2653002,17.1843261 40.1783186,17.0998955 40.0043553,17.1421108 L39.7869014,16.7621734 C39.4389749,16.8888193 38.6996312,17.184326 38.7866129,17.5220481 C38.1342509,16.9732497 36.568582,18.3663531 35.91622,18.7040752 C36.0466925,19.0417973 36.2641465,19.4639498 35.7857476,19.5483804 C35.0029132,19.8861025 35.91622,18.7040753 35.1333856,18.9995821 C35.263858,19.3373041 35.481312,19.7594567 34.6984775,19.9705329 C33.698189,19.5483804 32.0455386,20.6037617 31.0887409,21.3636363 C31.4366674,22.123511 31.6541214,21.5747126 31.7411029,21.9124347 C30.9582685,22.2501568 31.5236489,22.461233 31.1757225,22.5456635 C30.7408145,21.490282 30.827796,22.6723093 30.1754341,22.123511 C30.1754341,22.123511 30.827796,22.6723093 30.5233605,22.8833856 L30.1754341,22.123511 C27.8704215,22.6723093 27.7399492,24.276489 25.8698446,24.9941484 C26.0003171,25.3318704 25.6523906,25.5429467 25.7393723,25.8384535 C23.390869,28.0336468 21.5207645,30.3132706 20.1290588,32.8039707 C20.085568,32.7195403 20.085568,32.6351097 20.0420772,32.5506792 C19.6941508,32.677325 19.9116048,33.3949843 19.6071692,33.5216301 C19.9550957,34.2815047 20.1725497,33.7327064 20.2595312,34.0704285 C19.4766968,34.4081505 19.6941508,33.8593522 19.3897151,33.9437826 C19.5201875,34.2815047 20.0420771,34.492581 19.7376415,34.7036573 L18.9548071,35.0413793 C19.0852795,35.3791014 18.7373531,35.5901777 18.3894266,35.6746081 C18.8243346,36.7299896 18.7373531,37.5742947 18.0415003,37.8275862 C18.2589543,38.3763845 17.9110279,38.5874608 17.8240463,38.8829676 C17.8240463,38.5452455 17.8240463,38.2497388 17.6935739,38.0386624 L18.0415003,37.9120167 C17.9110279,37.5742947 18.1719728,37.0677117 17.6065922,36.8566353 C16.8237578,37.1943574 17.2586658,38.123093 16.6063038,38.4608151 C16.7367762,38.7985372 17.3891382,39.431766 17.0412119,39.5161964 C16.2583774,38.5452455 16.6932854,40.7826541 15.9539418,40.7826541 C16.3888498,41.8380356 14.9536533,42.3868338 16.0844142,43.1467084 C15.3015798,43.4844305 15.5190338,42.9356322 15.2145981,43.0200626 L15.5625246,43.7799372 C14.7796901,44.1176593 15.2145981,45.046395 14.5622361,45.384117 C15.2145981,45.9329154 14.4317637,46.2284221 14.7796901,46.861651 C15.1276166,46.7350052 15.3450706,46.2284222 15.5625246,46.5239289 L15.692997,46.861651 C15.1276166,47.0727273 14.9101626,47.4104494 14.9101626,47.7059561 C14.9101626,47.368234 14.7796901,46.9460815 14.6927086,47.2838036 C15.1058712,48.0014629 14.3012913,48.2125392 14.6492177,48.9724138 L14.6492177,48.9724138 Z M40.0191755,17.1210031 L40.1120852,17.4389082 C39.9262659,17.3329399 39.7869014,17.2269714 39.7869014,17.2269714 C39.8798109,17.1210031 39.9262659,17.1210031 40.0191755,17.1210031 Z M37.4818888,18.0497388 C37.6123612,18.3874609 37.3514163,18.8940439 36.6990544,19.2317659 C36.3946187,18.5141066 37.2644348,18.5141066 37.4818888,18.0497388 Z M15.5615273,48.6454607 C15.5615273,48.5924765 15.4964906,48.5924765 15.4314539,48.5924765 L15.2363435,48.9103816 L15.3664171,48.9103816 C15.5615275,48.751429 15.5615275,48.751429 15.5615273,48.6454607 Z M99.9129354,23.2844305 L99.565009,22.8622779 C99.347555,22.9889238 99.130101,23.2 99.347555,23.4110763 C99.565009,22.8622779 99.782463,23.4110763 99.9129354,23.2844305 L99.9129354,23.2844305 Z M98.5647205,18.9362591 C97.9993401,18.8096133 98.912647,18.7251828 98.3472665,18.5985371 C98.2167941,19.1473355 97.9993401,18.8096134 97.7818861,19.0206897 L97.9993401,19.3584117 L98.5647205,18.9362591 Z M86.0176241,9.92330195 L85.5827161,9.29007315 L85.8001701,9.07899688 C85.5827161,8.74127481 85.0173356,8.74127481 84.7129001,8.95235108 C84.9303541,9.29007315 84.9303541,9.79665614 85.1478081,10.0077325 C85.7131885,10.1343783 85.7131885,10.1343783 86.0176241,9.92330195 L86.0176241,9.92330195 Z M92.1063364,15.3901777 C92.410772,14.6725183 92.9326616,15.1791014 93.498042,14.7569487 L93.063134,14.2081505 C92.7152076,14.4192268 92.4977536,14.630303 91.9758639,14.630303 C92.1063364,14.8413793 91.5409559,14.7569489 92.1063364,15.3901777 L92.1063364,15.3901777 Z M84.2345012,7.81253916 C83.6691207,7.93918497 83.7995932,8.23469169 83.8865747,8.44576796 C84.0170472,8.23469169 85.0608264,8.10804588 84.2345012,7.81253916 Z M71.2524967,3 L70.6871163,3.42215253 L70.9045703,3.75987461 C71.7743863,3.6332288 71.9918404,3.42215253 71.2524967,3 L71.2524967,3 Z M98.1298125,20.8359456 C98.477739,20.6248693 98.695193,20.4137931 99.565009,20.7092999 C99.9129354,20.4982237 100.130389,20.2871474 99.9129354,19.9494253 C99.347555,20.3715778 98.8256653,19.8227795 98.2602848,19.738349 C98.9996285,20.0760711 97.6079229,20.2027168 98.1298125,20.8359456 L98.1298125,20.8359456 Z M76.8845557,101.678161 L76.3191752,102.100313 L76.7540832,102.649112 C77.1020097,102.39582 77.4064452,102.184744 76.8845557,101.678161 L76.8845557,101.678161 Z M75.5363408,3.97095088 C75.3188868,3.6332288 74.9709603,3.84430507 74.4490707,3.84430507 C74.3185982,4.39310341 73.8836902,4.2664576 74.3185983,4.89968653 L75.5363408,3.97095088 Z M76.3208459,104 C76.6734888,103.788924 76.4530871,103.451202 76.4530871,102.944619 C76.1886049,103.155695 76.1004442,103.704493 76.3208459,104 Z M77.3194637,102.184744 C77.6238993,102.522466 77.3194637,102.733542 77.5369177,103.029049 C78.4067336,102.817973 77.6673901,101.973668 77.3194637,102.184744 Z M83.8865747,8.75499136 C84.2221921,8.97978418 83.8865747,8.75499136 83.8865747,8.53019854 L83.8865747,8.75499136 Z M80.9292002,5.65956114 L80.2768382,6.08171367 L80.7117462,6.63051201 C81.1466542,6.41943575 81.1466542,5.8706374 80.9292002,5.65956114 Z M76.4061568,4.39310341 L76.8410649,4.94190176 L77.4064452,4.51974922 L76.9715372,3.88652042 C76.6236108,4.05538146 75.8842671,4.26645773 76.4061568,4.39310341 L76.4061568,4.39310341 Z M24.2420044,80.3805642 L24.4662691,80.169488 L24.2420044,79.8317659 C24.1074455,79.9584117 24.1074455,80.169488 24.2420044,80.3805642 Z M23.7605408,78.2275862 C23.4126144,78.4386625 23.9779948,79.0718913 23.6300684,79.2829675 C23.0646879,79.1563217 22.8472339,78.9452455 22.5427984,79.1563219 L23.5430868,80.338349 C23.7605408,80.169488 23.8910133,79.7473354 24.1084671,79.8317659 C24.2389396,79.6206896 24.4563936,79.4096133 24.7608292,79.4096133 L23.7605408,78.2275862 L23.7605408,78.2275862 Z M17.4108836,71.0932079 C17.976264,71.2198537 17.2804111,71.6420062 18.193718,71.9375131 L19.4114606,70.9665622 C18.6286262,70.1222571 19.0635342,69.3623825 17.976264,69.2779519 C18.628626,68.307001 17.6283376,67.1249739 17.1934296,65.985162 C17.1934296,65.985162 16.8455032,66.7450366 16.6280492,66.4073145 C16.7585216,65.8585162 16.4105952,65.5630094 16.7585216,65.3519331 C17.1934296,65.9007314 16.6280492,65.9007314 16.9759756,66.1962382 C17.541356,65.7740857 17.4108836,64.9297805 16.6280492,64.0432602 C16.2801227,64.2543365 15.7582332,64.2543365 15.7582332,64.2543365 C15.9756872,64.5920586 15.9756872,64.5920586 15.6277607,64.8031348 L15.0623804,65.2252874 C15.8452148,65.5630094 16.2801228,66.7028214 15.9321964,67.4626958 C16.1496504,67.8004179 16.4975768,67.5893417 16.4975768,67.5893417 C15.9321964,68.0114942 16.8455033,68.7713688 17.2804113,68.7713688 C16.2801228,68.9824451 18.2806997,69.6156739 18.3676813,70.4599791 C17.7153193,70.8821316 17.976264,71.1776384 17.4108836,71.0932079 L17.4108836,71.0932079 Z M16.1061596,65.2886102 L15.7582332,64.8664577 C15.8887056,64.7398119 16.1061596,64.6553814 16.1931412,64.7398119 C16.1931412,64.7820271 16.4105952,65.0775339 16.1061596,65.2886102 L16.1061596,65.2886102 Z M15.3233252,62.5446186 L15.7582332,63.093417 L16.3236136,62.6712643 C16.4540861,62.122466 15.7582332,62.5446185 15.0188895,62.2491118 C15.5842699,61.8269592 15.1493619,61.1937303 15.2363435,60.6449321 C15.105871,60.6449321 15.0188895,60.6449321 15.0188895,60.7715778 L14.8014355,60.3494252 L14.6709632,60.3494252 L14.6709632,59.9694879 C15.2363436,60.0961337 15.4537976,60.30721 15.7582332,60.0961337 C15.3233252,59.5473354 15.3233252,59.0407523 15.4103067,58.4919541 C14.888417,58.4075236 14.6709631,58.1964472 14.497,57.9431557 C14.5404907,57.8587253 14.497,57.7742947 14.4535091,57.6476489 C14.6709631,57.6476489 14.8014355,57.8587251 15.0188895,57.7742947 C15.1493619,57.5632184 15.1493619,57.4365726 15.1493619,57.2254963 C15.2798344,57.2254963 15.3668159,57.2254963 15.4972884,57.0988505 C15.2798344,56.7611285 15.8452148,56.8877743 15.8452147,56.3389759 C15.4103067,55.7901776 15.6277607,55.4946709 15.4103067,55.2835946 C15.2798343,55.1569488 15.2798343,55.1569488 15.1928527,55.1569488 L15.1928527,55.030303 C15.1928527,55.030303 15.3233252,54.9036572 15.3233252,54.8192267 C15.3233252,54.6925809 15.3233252,54.6081504 15.1928527,54.4815047 L15.1928527,52.4551724 L15.5407792,52.3285266 L45.0492884,40.7826541 L44.266454,38.7563218 L15.4103067,50.1755486 L15.1058712,50.1755486 C15.1058712,50.0489028 15.1058712,49.8378265 14.9753987,49.6267502 L13.8881287,50.0489028 C13.8881287,50.0489028 14.0186012,50.3866248 13.6706746,50.5977011 C13.8011471,50.7243469 13.8881286,50.7243469 14.0186011,50.7243469 L13.5836931,50.9354232 L13.9316195,51.6952978 C13.7141655,51.8219436 13.4967115,51.9063741 13.0618034,52.0330199 C13.1922758,54.3970742 12.6268954,57.0566353 13.4967115,60.0539185 L14.1490735,59.8428422 C14.497,60.2649948 14.0186011,60.8137931 14.3665275,61.3203761 C14.3665275,61.5314524 14.3665275,61.6580982 14.2360551,61.8691745 C14.3665275,61.8691745 14.4535091,61.7425287 14.5839815,61.5314524 L14.714454,61.6580982 C14.714454,61.5314524 14.714454,61.5314524 14.8449263,61.4470219 L15.0623804,61.2359457 C15.0623804,61.4470219 14.9319079,61.6580982 14.714454,61.6580982 C14.714454,61.6580982 14.9319079,61.9958203 14.1490735,62.0802507 C14.5839815,62.6290491 14.3665275,62.9245558 14.8014355,63.4733543 C15.1928527,63.0512017 14.4317637,62.7556949 15.3233252,62.5446186 L15.3233252,62.5446186 Z M13.7359109,57.7320795 L14.0838373,57.6054336 L14.2143097,57.6054336 C14.2143097,57.8165099 13.9968557,57.8165099 14.2143097,58.0275862 C14.3012912,58.0275862 14.3447821,58.0275862 14.3882729,57.985371 C14.3012913,58.323093 14.2578004,58.323093 13.8663832,58.2386624 C14.0838372,58.4497387 14.0838372,58.660815 14.0838373,58.660815 C13.8663833,58.3653081 13.6489294,58.0698014 13.7359109,57.7320795 Z M14.0838373,59.6317659 C14.0838373,59.5051201 14.0838373,59.2940438 14.3012913,59.2096133 L14.3012913,59.1251829 C14.5187453,59.1251829 14.7361993,59.1251829 14.8666718,58.9141066 C14.9536533,59.7584117 14.4317638,59.5473354 14.0838373,59.6317659 Z M98.7821745,55.3139804 C98.912647,55.5749429 99.130101,55.4705579 99.347555,55.3139804 C99.2605734,55.1574028 99.130101,55.0530178 98.7821745,55.3139804 Z M42.881039,93.3617555 L42.7691667,93.3617555 C42.6572943,93.4412317 42.6572943,93.6001843 42.6572943,93.6796605 C42.7691667,93.5207081 42.881039,93.4412317 42.881039,93.3617555 L42.881039,93.3617555 Z" id="Shape"></path>
                        <path d="M93.7165714,62.9346991 C94.5622857,63.0653009 94.7737143,62.4993598 94.2662857,60.1920615 C94.2662857,59.7567222 94.3931429,59.3213829 94.3931429,58.8860436 C94.6045715,59.1037132 94.816,59.2343151 95.1542858,59.5390525 C96.1268572,58.2330346 95.7040001,57.1011524 96,56.3610756 C95.9577143,56.4046095 95.9577143,56.4046095 95.9154286,56.4046095 C95.9154286,56.4046095 95.9154286,56.3610756 95.8731428,56.3610756 C95.5348571,56.5787452 95.112,56.0128041 95.4502857,55.7951345 C95.4502857,55.7951345 95.6617143,56.143406 96,55.9257363 L95.4502857,55.1421256 C95.2388571,55.3597952 94.9005714,55.5774648 94.4777143,55.1421256 C94.6045715,52.1818183 94.4777143,49.221511 93.928,46 C93.1668571,46.3482715 93.5051429,47.0012804 92.6594286,47.0012804 C92.9977144,48.8732395 93.0822857,50.7451985 93.2091428,52.4865557 L23.9451428,81.327785 L24.1565714,81.9807939 C23.7337143,81.5454546 23.184,81.1101153 22.888,80.5441742 C22.5497143,80.7618438 22.5497143,81.327785 22.5497143,81.327785 C22.4228571,81.1971831 22.4228571,81.1101153 22.3382857,80.9795135 L22,81.1971831 C22.2114286,81.5454546 22.7611429,82.0678617 22.9725714,81.8501921 C22.6342857,82.6338028 24.368,83.7221511 24.8754286,84.2880923 C25.2137143,84.0704226 25.4251429,83.852753 25.7211429,84.0704226 C26.144,84.6363637 24.8754287,84.2880923 25.3828572,84.8540334 C25.7211429,84.6363637 25.9325715,84.4186941 26.44,84.9846351 C26.3131428,86.0729834 27.8354285,87.2919335 28.808,87.9449424 C29.3577143,87.5096031 28.9348572,87.3790013 29.1462858,87.1613316 C29.5691429,87.7272727 29.6960001,87.2919335 29.9074285,87.5096031 C29.0617143,88.2932139 30.1188571,87.8578746 29.7805715,88.5979514 C29.7805715,88.5979514 30.1188572,87.8143407 30.3302858,88.162612 L29.7805715,88.5979514 C30.9645714,90.6875802 32.5714287,90.2522408 33.7554286,91.7759284 C34.0937144,91.5582587 34.3051429,91.9065302 34.6011429,91.5582587 C35.2354285,91.993598 35.8697143,92.3418695 36.504,92.6466069 C36.2925715,92.7772088 36.0811429,92.9948784 35.7428572,93.0819462 C36.7154286,94.3879642 37.8994286,94.3008962 38.5337144,94.8233035 C38.7451429,94.6927016 38.7451429,94.475032 38.7451429,94.3879642 C38.8720001,94.7362357 38.6182857,95.1715749 38.9565715,95.0409731 C38.8297143,94.6927016 39.5062858,94.3879642 39.7177143,94.6927018 C39.7177143,94.6927018 39.3794286,94.8233036 39.5062858,95.2586427 L40.1828571,94.9539053 L40.1828571,95.128041 C40.3097143,95.128041 40.5211429,94.9103714 40.3942857,94.6927018 C40.3097143,94.7362357 40.2674285,94.7797696 40.2674286,94.8233035 C40.2251429,94.6927016 40.1828573,94.5620999 40.1828571,94.4314981 C40.1405714,94.475032 40.0559999,94.475032 39.9714286,94.475032 L39.8445714,94.1267606 C39.9291428,94.1267606 40.0982856,94.2138284 40.2251428,94.2138284 C40.2674285,94.1267606 40.3097142,94.0832266 40.3942857,93.9961588 C40.7325714,94.1267606 41.1554285,94.2138284 41.4514286,94.3444303 C41.4514286,94.3444303 41.3245714,94.3444303 41.3245714,94.475032 C41.6628572,95.2586427 41.8742857,94.6927016 41.9588571,95.0409731 C42.0857143,94.9103713 42.1702857,94.9103713 42.1702858,94.8233035 C42.1702858,94.9539053 42.1702858,95.0409731 42.3817143,95.2586427 C42.6777144,95.1715749 42.8891429,95.4327785 43.1851429,95.3892446 C43.7348572,95.6069142 44.4537144,95.6939822 44.9611428,95.9116518 C44.6228571,95.128041 44.4114285,95.6939822 44.3268572,95.3457107 L45.088,94.9974392 C45.4262858,95.78105 45.7222857,95.5633803 45.8491429,95.9987196 C46.0605714,95.8681178 46.0605714,95.78105 46.0605714,95.6504481 L46.1874286,95.78105 C46.3142858,95.78105 46.3142858,95.6504481 46.3988572,95.6504481 C46.7371429,95.8681178 47.1600001,96.0857874 47.456,96.2163892 C47.8788571,96.7823304 48.8514285,96.0857874 49.2742858,96.6517285 C49.4857143,96.5211267 49.6971429,96.0857874 49.9085714,95.8681179 C49.6971429,96.3034572 50.0354286,96.2163894 50.2468572,96.5211268 C51.008,96.1728553 51.0925714,96.6517287 51.4308572,96.390525 L51.4308572,96.1728553 C51.6422857,96.1728553 51.7691429,96.3034572 51.7691429,96.5211268 C51.9805715,96.390525 52.1074286,96.3034572 52.3188572,96.3034572 C52.3188572,96.5211268 52.4457144,96.7387965 52.5302858,96.8693983 C52.8685715,96.7387965 53.7142857,96.7387965 54.2217143,97 C54.9828572,96.6517285 54.4331429,96.4340589 54.7714285,96.3469911 C55.1097143,97.1306018 55.3211428,96.5646607 55.4057143,96.9129322 C57.8582858,96.2599233 60.8605715,96.4775929 63.44,95.6939822 L63.5668571,95.8245839 C64.1165714,95.6069142 64.624,95.4763124 65.2582857,95.2586427 C65.4697142,95.4763124 65.6811428,95.6069142 65.8925715,95.4763125 C66.1040002,95.3457108 66.104,95.2586429 66.104,95.0409731 C66.2308572,95.0409731 66.3154286,94.9103713 66.5268572,94.9103714 L66.6537143,95.2586427 C67.4148572,94.9103713 68.3451429,94.475032 69.2331429,94.6056338 C70.6285714,94.0396927 72.2354286,92.9513445 74.3497143,92.0806658 C74.2228571,91.7323943 73.7154286,91.5147247 74.0114286,91.2970551 L74.3497143,92.0806658 C74.8994286,91.4276569 76.5062857,91.2099872 76.5062857,90.3393086 C76.5062857,90.3393086 76.6331429,90.68758 77.056,90.5569783 C79.2125714,88.8156211 81.8765714,87.2483996 83.0605714,85.1587708 C83.8217142,84.8104993 84.9634285,83.9398208 85.0902857,83.0691422 C85.0902857,83.0691422 85.2171429,83.4174137 85.64,83.2868119 C86.6125714,81.6325225 88.4308572,79.9782331 88.9382857,78.106274 C88.8114285,77.7580025 88.1771428,78.4545455 88.3885714,77.8886044 C89.2342856,78.0192062 89.3611428,77.1049936 89.1497143,76.6696543 L89.488,77.4532651 C89.8262857,77.3226632 89.3611428,76.234315 90.5451429,76.1472471 C90.5451429,76.1472471 89.9954286,75.9295775 90.2068572,75.3636363 C91.1794286,75.7989756 90.5451429,74.0576184 91.6868571,73.9270167 L91.3485715,73.1434059 C92.4057144,71.8373879 92.4057144,69.7477593 93.5897142,68.3982075 C93.0399999,66.9615878 94.1394285,66.5262484 93.7165714,65.4379002 L94.4777143,65.0896287 C94.224,64.3713188 94.6468572,63.3700384 93.7165714,62.9346991 L93.7165714,62.9346991 Z M94.4354286,55.3597952 C94.5622858,55.2291934 94.6468572,55.2291934 94.7737143,55.5774648 L94.4354286,55.9257363 L94.4354286,55.3597952 Z M94.3508571,57.5364917 C94.5137617,57.5364917 94.7852693,57.5364917 94.6223648,57.7541614 L94.3508571,58.1024328 L94.3508571,57.5364917 Z M23.9451428,83.15621 C24.1565714,83.0256082 24.368,83.0256082 24.5794286,83.0256082 L24.7062857,83.2432778 L24.9177143,83.1126761 L25.256,83.4609476 C24.7062857,84.0268887 24.4948571,83.243278 23.9451428,83.15621 L23.9451428,83.15621 Z M38.0474286,93.8223043 L37.9205714,93.4955185 C38.0474286,93.4955185 38.132,93.6915899 38.2588571,93.6915899 C38.2588571,93.8223041 38.2588571,93.8223041 38.0474286,93.8223043 Z M43.3754286,95.5491503 L43.3754286,95.3040611 C43.5868572,95.3040611 43.7137143,95.120244 43.7982857,95.3040611 L43.3754286,95.5491503 Z M43.46,95.0627401 C43.46,94.9321382 43.46,94.7144686 43.6208695,94.4967991 C43.6208695,94.6274009 43.7817391,94.8450705 43.7817391,94.9321383 C43.6208695,94.9321383 43.6208695,95.0627402 43.46,95.0627401 L43.46,95.0627401 Z M48.6188571,96.0204866 L48.4920001,95.8028169 C48.4920001,95.8028169 48.3651429,95.8028169 48.3651429,95.9334187 C48.3651429,95.8028169 48.3651429,95.7157491 48.4920001,95.8028169 C48.3651429,95.6722151 48.4920001,95.6722151 48.4920001,95.8028169 C48.6188572,95.6722151 48.7034286,95.6722151 48.8302857,95.6722152 C48.8302857,95.802817 48.7034285,95.9334187 48.6188571,96.0204866 L48.6188571,96.0204866 Z M68.8102857,93.8888145 C68.8102857,93.7373429 68.6834286,93.7373429 68.6834286,93.7373431 C68.8948571,93.7373431 69.2331429,93.4848906 69.3177144,93.5858715 C69.233143,93.7373431 69.0217143,93.8888145 68.8102857,93.8888145 L68.8102857,93.8888145 Z M87.0565714,78.2804097 C87.6062857,77.6274008 87.6062857,78.4980794 87.6908572,78.8463509 C87.4794286,79.3687581 87.2680001,78.715749 87.0565714,78.2804097 Z M89.4245715,74.8412293 C89.9742858,75.0588989 89.7628572,74.7106274 90.1857143,74.4929578 L90.524,75.2765685 C90.2702857,74.8412293 89.5091429,75.1895007 89.4245715,74.8412293 L89.4245715,74.8412293 Z M90.5028571,74.40589 C90.8411429,74.2752881 90.6297143,73.5352114 90.9257142,73.4046095 L91.264,74.1882202 L90.5028571,74.40589 Z M93.0400001,64.5019206 C92.9131429,64.1536491 92.1942858,64.3713188 91.856,64.6325225 C90.672,68.9423816 89.192,72.4250961 86.9508572,75.9731114 L87.0777142,76.3213828 C85.8937143,76.4519847 85.5977142,77.7580025 85.1748571,78.7592831 C83.568,79.8476314 82.5108571,82.3725993 80.5657143,83.5915493 C80.6925714,83.9398208 81.1999999,84.1574904 80.904,84.3751601 C80.3542857,84.1574904 79.0011428,85.5941101 79.2125714,86.334187 C78.8742857,86.4647888 79.0857142,85.1152369 78.5782857,85.7682458 C78.0285714,86.4212548 76.6754286,86.9871959 76.2102858,87.9884764 C75.872,87.2048657 75.4491429,88.3367479 75.2377142,88.772087 C73.3348571,89.1203585 71.728,91.0793854 69.0217143,91.7323945 C69.0217143,91.7323945 69.1485715,92.0806659 68.8102857,92.2983355 C68.6834286,91.950064 69.0217143,91.7323943 69.0217143,91.7323945 C67.4148572,92.3854034 66.0194285,92.603073 65.1737143,93.4737516 C65.0468571,93.4737516 64.9622858,93.6043534 64.8354286,93.6043534 L64.624,93.0384123 C63.8628572,93.3866838 63.2285715,93.6043534 62.7211429,93.3866838 C62.3828571,93.7349553 62.2982857,94.0396927 62.2982857,94.2573623 L62.0868572,94.2573623 C62.0868572,94.0396927 62.0868572,93.8220231 61.96,93.6043534 C60.776,93.7349553 60.48,93.8220231 59.592,93.7349553 C59.7188572,94.0832267 60.2262857,94.3008964 59.9302857,94.518566 C59.296,93.9526249 58.6617142,94.1702945 57.7737143,94.1702945 C57.9005715,94.518566 58.3234286,94.7362357 58.112,94.8233035 L57.9005715,94.8233035 C58.0274286,94.6927016 58.0274286,94.6056338 57.9005715,94.475032 C56.7165715,94.6056338 55.9977143,94.8233035 55.1097143,94.8233035 C54.9828571,94.8233035 54.9828571,94.9539053 54.9828572,95.0409731 L54.7291428,95.0409731 L54.7291428,94.9103714 C54.5177143,94.9103714 54.3062857,94.9103714 54.1794285,95.0409731 L53.3337143,95.0409731 C52.2765714,95.0409731 51.0925714,95.0409731 50.0354286,94.6927018 L50.0354286,94.9103714 C49.6971429,94.9103714 49.4857143,94.7797696 49.0628572,94.7797696 C48.6400001,94.4314981 48.217143,94.5620999 47.7942857,94.9103714 C47.0331429,94.0396928 45.976,94.4750321 44.9188572,93.8220231 C44.7074286,94.0396927 44.5805714,94.2573623 44.496,94.3879642 C44.2845715,94.3879642 44.0731429,94.2573623 43.8617142,94.2573623 C43.9885714,94.2573623 44.0731428,94.1267605 44.2,94.0396927 C40.352,92.8207427 36.8422858,92.1677336 33.1845715,89.2074264 C32.6348572,89.0768246 31.916,88.2061461 31.1548572,88.4238157 C31.4931429,88.2061461 31.4931429,88.2061461 31.2817143,87.8578746 C29.8017143,87.0742638 28.4062858,84.7669654 26.7994286,84.5492958 C26.4611428,83.9833547 26.0382857,83.3303458 25.404,82.8079385 L93.188,54.5761844 C93.0611428,57.2317542 92.7651428,59.6261205 92.2154285,61.9334187 C92.5325714,63.0653009 93.2937143,63.9359795 93.0400001,64.5019206 L93.0400001,64.5019206 Z" id="Shape"></path>
                        <path d="M107,53.5716639 L106.285714,54 C106.476191,54 106.761905,53.9143328 107,53.5716639 Z M106,41.3426689 C106,41.214168 106.358824,41.1285009 106.358824,41 C106.358824,41 106,41.214168 106,41.3426689 Z" id="Shape"></path>
                        <path d="M101.75419,37.6768403 C101.977654,38.4667864 101.888268,39.4542191 102.558659,40.2836625 C102.916201,40.0861759 103.452514,40.0861759 103.675978,40.4021544 C103.318436,40.5996409 103.094972,40.2836625 102.558659,40.7971275 C103.005587,41.7845602 102.692737,42.5745063 103.139665,43.6014363 C103.72067,43.7199282 104.033519,43.4039498 104.256983,43.7199281 C103.899441,43.9174146 104.122905,44.2333931 104.122905,44.7073608 C102.648045,45.2998204 103.318436,46.6032316 103.988827,47.9856373 C103.407821,48.3806103 104.435754,48.97307 103.541899,49.1705565 C103.988827,49.6840215 104.122905,49.2890485 104.346369,49.486535 C104.122905,49.605027 104.21229,49.881508 104.212291,50 C104.659218,49.881508 105.329609,49.0125673 105.776536,49.4075403 C105.776536,49.0915618 105.910615,48.6965888 106,48.4201077 C105.642458,48.6175942 105.418994,48.8150808 105.106145,48.6175942 L105.687151,48.2226212 C105.553073,46.4452424 105.821229,44.4308798 105.240224,42.6140035 C104.703911,42.8114901 104.569833,42.5745063 104.480447,42.2980251 L103.899441,42.8114901 C104.03352,42.2585278 103.675978,41.9820466 104.03352,41.7845602 L104.480447,42.2980251 C104.346369,41.9820466 104.256983,41.5475763 103.675978,41.4290844 C104.03352,41.2315979 103.810056,40.9156194 104.03352,40.7181329 C104.256983,41.508079 104.480447,41.2315979 105.150838,40.8366247 C104.480447,40.1256732 104.480447,39.6517055 104.703911,39.0592459 C104.569832,39.1777379 104.480447,39.2567324 104.256983,39.2567324 C104.03352,38.940754 104.391062,38.7432674 104.927374,38.3482944 C104.122905,37.5583483 104.03352,36.2549371 103.586592,35.2675045 C103.005587,35.6624775 103.452514,36.2549372 103.139665,36.4524237 C102.692737,35.9389587 103.273743,35.9389587 102.916201,35.6624775 C102.916201,35.6624775 102.335196,35.5439856 102.022346,35.8599641 C101.798883,35.5439856 101.888268,34.556553 102.826816,34.4775584 C102.826816,34.4775584 102.469274,34.6750449 102.692737,34.9910234 C103.273743,34.5960504 103.050279,34.2800719 103.363128,34.0825852 C102.558659,33.7666068 102.916201,33.0951525 102.469274,32.5026931 C101.888268,32.8976661 101.575419,32.7001796 101.351955,32.8976661 C101.486034,32.3842011 101.486034,32.3842011 102.022346,31.9892281 L101.575419,31.3967684 C102.156425,31.5152603 101.932961,31.1992819 102.156425,31.0017953 C101.351955,30.2118493 100.905028,29.1059246 100.458101,28.118492 C100.100559,28.3159785 99.5642459,28.3159785 99.3407821,28.513465 L98.8938547,28 L98,28.7109515 C98.4469274,29.2244165 98.8044693,29.02693 99.027933,29.3034112 L98.4469274,29.6983843 C99.9217877,31.7917415 100.234637,33.8850987 101.173184,35.978456 L101.530726,35.7809695 C100.949721,36.1759425 102.335196,36.5709156 101.396648,36.7684021 C101.530726,36.8868941 101.843575,37.0843806 102.022346,37.2818671 C102.111732,37.1238779 102.24581,37.0053859 102.424581,37.1633753 L102.648045,37.4793536 C102.469274,37.5583482 102.24581,37.4398563 102.067039,37.4003591 C102.111732,37.4398563 102.111732,37.518851 102.067039,37.5583483 C101.888268,37.4793537 101.888268,37.4793537 101.75419,37.6768403 L101.75419,37.6768403 Z M100.726257,32.7001796 C100.502793,32.3842011 100.27933,32.1867146 100.502793,31.9102334 C100.726257,32.2262119 101.083799,32.0287253 101.083799,32.0287253 C100.860335,32.1867146 101.083799,32.5026931 100.726257,32.7001796 Z M99.8324022,31.08079 C99.6089386,30.2908439 100.502793,30.172352 101.173184,29.6983843 C101.888268,30.4883303 100.502793,30.685817 99.8324022,31.08079 Z M102.648045,38.6642729 C102.871508,38.9802514 103.541899,38.4667864 103.765363,38.7827648 L103.094972,39.1777379 C103.22905,38.6642729 102.513966,39.0592459 102.067039,38.5852783 C102.424581,38.3877918 102.424581,38.3877918 102.648045,38.6642729 L102.648045,38.6642729 Z" id="Shape"></path>
                        <path d="M104.64151,41.0358745 C104.526882,41.1460395 104.526882,41.1460395 104.526882,41.2562045 C104.64151,41.2562045 104.64151,41.2562045 104.756137,41.3663698 C104.756137,41.2562048 104.64151,41.1460398 104.64151,41.0358745 Z M109,55.9013453 C108.767025,55.67713 108.767025,55.3183856 108.767025,55.0941704 C108.16129,55.5426009 108.90681,55.9013453 108.62724,56.1255605 C108.767025,55.9910313 108.860215,55.9910313 109,55.9013453 L109,55.9013453 Z M106.623656,56.6636772 L106.390681,56.6636772 C105.924731,57.1121076 106.390681,57.1121076 106.623656,56.6636772 Z M107.415771,55.9461883 L107.369176,55.9013453 L107.322581,55.8565023 C107.089606,55.67713 106.856631,55.587444 106.856631,55.4977578 L106.856631,55.4080718 C106.763441,55.4977578 106.763441,55.542601 106.810036,55.5426009 C106.763441,55.5874439 106.670251,55.6322869 106.623656,55.632287 C106.810036,55.9013453 107.089606,55.8116592 107.322581,55.9013453 L107.322581,55.9910315 C106.949821,55.9910315 107.275986,56.5739911 106.856631,56.4394619 C106.856631,56.5739911 106.856631,56.6636772 106.716846,56.6636772 C106.903226,56.6636772 107.089606,56.5739911 107.229391,56.4394619 L107.741935,56.4394619 L107.462366,55.9910315 L107.415771,55.9461883 Z M102.057348,30.7219731 C102.290323,30.4977579 102.896057,30.3632287 102.290323,30.1390134 C102.057348,30.3632287 102.150538,30.4529148 102.057348,30.7219731 Z M101.950547,31.0524685 C102.213244,30.8541712 102.213244,30.8541712 102.213244,30.7219731 C101.950547,30.7219731 101.775415,30.8541712 101.950547,31.0524685 Z M102.616487,29.7578475 C101.777778,28.8609866 102.476702,28.2780269 101.684588,27.9641255 C101.311828,28.1883407 101.078853,28.412556 100.519713,28.4125561 C100.752688,28.7713005 100.752688,29.309417 100.985663,29.5336323 C100.053763,29.7578475 99.3548386,28.1883407 100.379928,29.9820627 C100.752688,29.7578475 101.311828,29.7578475 101.917563,29.309417 C101.684588,29.4439462 102.849462,30.1390134 102.616487,29.7578475 L102.616487,29.7578475 Z M100.053763,24.707177 L100.386957,24.3766817 C100.053763,24.4868468 100.053763,24.4868468 100.053763,24.707177 Z M96.6057347,23.2556054 C96.6057347,23.1210762 96.8387096,22.8071749 96.6057347,22 C96.4659497,22.5829597 96.4659497,22.5829597 96,22.4484305 C96.2795699,22.7174887 96.5125447,23.0313901 96.6057347,23.2556054 Z" id="Shape"></path>
                        <path d="M103.926491,26.9291397 C104.055807,26.3696617 104.055807,25.8532204 103.581646,25.2937426 C103.021274,25.7241102 103.45233,25.8532206 103.236802,26.0684044 C103.107485,25.6380367 102.590219,25.0785587 102.374691,24.7773013 C102.590219,24.9064116 102.935063,24.9064116 103.150591,24.6481909 C102.935063,24.5190806 102.719536,24.3038968 102.504008,24.0887129 L102.159163,24.3038969 C102.159163,24.1747865 102.28848,24.0887131 102.374691,24.0887129 C101.728108,23.4431615 101.167736,22.582426 100.521153,22.6684996 L101.081525,22.238132 C100.952208,22.1090216 100.736681,22.1090216 100.521153,22.238132 L100.305625,22.0229481 C99.8745698,22.3672423 99.5297254,21.8938378 99.3141977,22.0229481 C99.3141977,22.3672423 99.6590421,22.4533158 100.090097,22.4533158 C99.7452531,22.6684996 99.5297254,22.8836835 99.2279866,23.0988673 C99.2279866,23.0558305 99.1848811,23.0127938 99.1417755,23.0127938 C99.1417755,23.0127938 99.1417755,23.0558305 99.1848811,23.0988673 L99.09867,23.0988673 C99.3141977,23.5292349 99.5297254,23.8735291 99.8745698,24.1747865 C99.8745698,24.1747865 99.8745698,24.0456762 100.003886,24.0456762 C100.003886,24.0887129 100.046992,24.1747865 100.046992,24.2178233 L100.003886,24.1747865 C99.8745697,24.3899704 100.003886,24.7342645 100.003886,25.1646322 C100.305625,24.9924851 100.478047,25.2076689 100.736681,25.0355219 C100.65047,25.5519631 100.65047,26.0253675 100.865997,26.3696617 C101.210842,26.1544779 101.210842,25.5949999 101.426369,25.939294 C101.771214,26.0684044 101.555686,26.3696617 101.210842,26.5848455 L102.202269,27.789875 C102.719536,27.9620221 103.150591,26.4987719 103.926491,26.9291397 L103.926491,26.9291397 Z M100.26252,24.5621175 C100.434942,24.6912278 100.564259,24.7773013 100.736681,24.9494484 C100.391836,24.8633749 100.348731,24.820338 100.26252,24.5621175 Z M83.8608609,22.238132 L45.4107171,37.8389604 L48.2556829,39.0439899 L84.7229717,24.3038969 L83.8608609,22.238132 Z M30.73328,55.0106309 C28.4486862,55.9359214 26.5089368,56.75362 24.9140318,57.4206899 C23.3406795,58.0877598 21.9828549,58.711793 20.840558,59.2497525 L20,57.1624693 C21.1854024,56.7751383 22.5863325,56.2586971 24.2027904,55.6561825 C25.8192483,55.0536678 27.6943394,54.3005243 29.8496165,53.4397888 C32.0048936,52.557535 33.8799847,51.7828732 35.4317841,51.094285 C37.0051364,50.4056966 38.3414082,49.8031819 39.4837051,49.243704 L40.3242631,51.3309872 C39.3328357,51.6322446 38.2336443,52.0410939 37.0266891,52.4929799 C35.819734,52.9663843 34.4403566,53.4828256 32.9532155,54.0853404 C32.9532155,54.6663368 32.91011,55.2688515 32.8454516,55.914403 C32.7807933,56.5384361 32.6945822,57.1839877 32.5652656,57.872576 L36.7680559,68.1798819 C36.9404781,68.6102496 37.0913475,68.9760621 37.242217,69.2988379 C37.3715336,69.6216137 37.5224029,69.9228711 37.6517196,70.20261 C37.7810363,70.4823489 37.9319056,70.7836064 38.0612222,71.0633454 C38.2120917,71.3430844 38.3629611,71.6443418 38.5569359,71.9886358 L36.0352617,73 C35.9490506,72.6341875 35.8412867,72.3114117 35.7550757,71.9886358 C35.6473118,71.6873784 35.5611008,71.3861211 35.4533369,71.0848638 C35.3455729,70.7836064 35.2378092,70.4608307 35.1084926,70.1380549 C34.9791759,69.8152791 34.8283066,69.4279482 34.6558843,69.0190989 L31.6169437,61.5522197 C31.1427828,62.9509146 30.5393051,64.4356831 29.7849581,65.9850068 C29.0306111,67.5343305 28.1038419,69.1697276 26.9830979,70.8911983 C26.6382535,70.6544961 26.2071981,70.3962755 25.7114843,70.1595733 C25.2157705,69.9228711 24.7416096,69.7722423 24.3105542,69.7076872 C26.3580675,67.5988856 27.9314198,65.3179368 28.9875055,62.9078779 C30.0866969,60.4978189 30.647069,57.8510576 30.73328,55.0106309 L30.73328,55.0106309 Z M43.1045707,63.8331684 C42.3933292,63.359764 41.7251934,62.9293962 41.0570574,62.5420653 C40.3889215,62.1547344 39.7423383,61.7889219 39.0742025,61.4661461 C38.4060666,61.1433702 37.7379306,60.8421129 37.048242,60.562374 C36.3585533,60.2826351 35.6473119,60.0244144 34.8929649,59.7877122 L36.1214728,57.7865025 C36.8973726,58.0877599 37.6086141,58.3674989 38.2767499,58.6472378 C38.9448858,58.9269767 39.591469,59.2067158 40.2596049,59.4864547 C40.906188,59.7661937 41.5743239,60.0889695 42.2640125,60.4117453 C42.9321484,60.7345211 43.6864954,61.1003336 44.4623953,61.4876645 L43.1045707,63.8331684 L43.1045707,63.8331684 Z M48.3849996,48.0817113 C47.6090998,48.4044871 46.9625168,48.6627076 46.4452502,48.8778915 C45.9279837,49.0930753 45.4753755,49.2867407 45.1089784,49.4588878 C44.7425813,49.6310349 44.4192896,49.7816636 44.1391037,49.9107739 C43.8589177,50.0398842 43.6002844,50.1905128 43.3200984,50.3411415 L42.4579875,48.2108215 C42.7597263,48.1462664 43.0614651,48.0601928 43.3632039,47.9956377 C43.6649428,47.9095642 44.009787,47.8019722 44.3977369,47.672862 C44.7856868,47.5437516 45.2382949,47.3716045 45.7555615,47.1564207 C46.272828,46.9627553 46.9194111,46.7045347 47.6953109,46.3817589 L56.7690276,42.7021152 C57.9328772,42.2287108 58.9243047,41.798343 59.74331,41.4110121 C60.5623152,41.0236812 61.2304512,40.679387 61.7261649,40.3996481 L62.6098286,42.5514865 C62.2003259,42.6590785 61.7261649,42.8097071 61.1657928,43.0033726 C60.6269735,43.1970381 60.0019432,43.4122219 59.3122546,43.6704425 L65.1961611,58.1092782 C65.390136,58.6042011 65.5194527,59.0560871 65.5410054,59.4218996 C65.5841109,59.8092305 65.4547944,60.1750431 65.1961611,60.5193373 C64.9375278,60.8636314 64.4849196,61.2079256 63.8598892,61.5307013 C63.2348589,61.8534771 62.372748,62.240808 61.2735567,62.6496573 C61.1226873,62.3053631 60.8640541,61.9395506 60.5192097,61.573738 C60.1743654,61.1864071 59.7648627,60.9066682 59.269149,60.6914842 C60.2390237,60.4763004 60.9933708,60.2826349 61.5537427,60.0889695 C62.1141148,59.9168224 62.5020646,59.7231569 62.7606979,59.5294915 C63.0193311,59.335826 63.127095,59.1421606 63.127095,58.9269767 C63.127095,58.7117929 63.0624367,58.4535723 62.9546728,58.1523149 L57.3509524,44.4020676 L48.3849996,48.0817113 L48.3849996,48.0817113 Z M52.867976,61.6382931 L50.7773572,62.4775102 C50.6911461,62.1762528 50.5833822,61.8319587 50.4325128,61.4231093 C50.3031961,61.01426 50.1523268,60.6054107 50.0230102,60.1965615 C49.8721407,59.7877122 49.7428242,59.3788629 49.5919548,59.0130503 C49.4410853,58.6257194 49.3117688,58.324462 49.2255576,58.0662414 L47.9539441,54.9460757 C47.7384164,54.4296345 47.5013359,53.8701565 47.1995972,53.2461234 C46.9194112,52.6220903 46.6607779,52.105649 46.4236974,51.6967997 C46.8547528,51.5676894 47.4797832,51.3740239 48.2556829,51.094285 C49.0315827,50.814546 50.0445629,50.4272151 51.2946237,49.9107739 C52.5446844,49.3943326 53.4930063,49.0070017 54.1395894,48.7057444 C54.7861725,48.4044869 55.2603336,48.1677847 55.6051779,47.9741193 C55.6698362,48.1677847 55.7344946,48.4044869 55.8207056,48.684226 C55.9069167,48.9639649 56.0146806,49.2652224 56.1224444,49.5879981 C56.2302083,49.9107739 56.3379721,50.2120312 56.4672887,50.534807 C56.5750526,50.8575828 56.7043692,51.1158033 56.7905803,51.374024 L58.0621938,54.4941897 C58.2777215,55.010631 58.4932492,55.5270721 58.7518825,56.0865501 C59.0105157,56.6245097 59.269149,57.1409509 59.549335,57.5713185 L57.5664801,58.3890172 L56.8983441,56.75362 L51.7041264,58.8624216 L52.867976,61.6382931 L52.867976,61.6382931 Z M54.462881,50.6854357 L49.2686632,52.7942373 L51.0359904,57.1624693 L56.2302083,55.0536676 L54.462881,50.6854357 L54.462881,50.6854357 Z M81.8995587,47.5437516 C82.1797447,48.2538583 82.4599308,48.8994098 82.7401167,49.4804062 C82.99875,50.0614026 83.3004888,50.6854357 83.6453332,51.3309872 L81.4685032,52.213241 C81.2529755,51.5031343 81.015895,50.8360644 80.8003673,50.2120313 C80.5848396,49.6095165 80.3262064,48.9639651 80.0460203,48.2753767 L79.3778845,46.6184611 L74.8949081,48.4475238 C75.3475162,49.9968475 75.6061496,51.5031344 75.6492551,52.9663844 C75.6923606,54.4296346 75.6277023,55.6777008 75.4337273,56.7105832 C74.9811191,56.5599545 74.5931692,56.4523627 74.2267721,56.3878074 C73.8819277,56.3232523 73.4508723,56.3017339 72.9336059,56.3232523 C73.3862141,54.9891125 73.5586363,53.5043441 73.3862141,51.8474284 C73.2353446,50.1905128 72.739631,48.3399318 71.8990728,46.2741669 L69.528268,40.4642033 C69.248082,39.7540966 68.967896,39.1300635 68.7092627,38.5921039 C68.4506295,38.0541442 68.2351018,37.6237766 68.0411269,37.3225191 C68.6446045,37.1073353 69.2265293,36.9136699 69.8084541,36.698486 C70.3903789,36.4833022 70.9938565,36.2681184 71.6188869,36.0098978 C72.2439172,35.7731956 72.8905004,35.5149749 73.580189,35.235236 C74.2698777,34.955497 75.0242246,34.675758 75.8216771,34.3314638 C76.8562101,33.9226145 77.7398738,33.556802 78.472668,33.2340262 C79.2270151,32.9327687 79.8735981,32.6530298 80.455523,32.3948092 C81.0374478,32.158107 81.5547143,31.9214048 82.0288752,31.706221 C82.5030362,31.4910372 82.99875,31.254335 83.5160165,31.0176327 C83.5806748,31.3619268 83.7099914,31.8138129 83.9039664,32.3948092 C84.0979413,32.9758056 84.3350218,33.5998387 84.6152079,34.3099454 L90.1111645,47.8019722 C90.2835867,48.2108215 90.3913505,48.5551157 90.434456,48.8133362 C90.4991142,49.0715568 90.434456,49.3512959 90.2620338,49.5879981 C90.0896116,49.8462186 89.76632,50.1259577 89.3352647,50.4272151 C88.8826566,50.7284726 88.2360734,51.1373218 87.4170681,51.6322446 C87.1584349,51.2664321 86.9213543,50.9436563 86.6842738,50.6639173 C86.4471934,50.3841784 86.1670073,50.0829209 85.822163,49.7601451 C86.3609823,49.5664797 86.770485,49.3728142 87.0937765,49.2221856 C87.3955153,49.0500385 87.6325958,48.8994098 87.7834652,48.7487811 C87.9343346,48.5981524 88.0205457,48.4475237 88.0420984,48.2968951 C88.0636512,48.1462665 88.0205457,47.9741193 87.9558874,47.7589355 L86.3178767,43.756516 L81.2314227,45.8222809 L81.8995587,47.5437516 L81.8995587,47.5437516 Z M76.6191298,39.8832069 L75.2613052,36.5693758 L70.8429871,38.3554017 L72.2008117,41.6692328 L76.6191298,39.8832069 L76.6191298,39.8832069 Z M72.8905003,43.3261483 L74.2914305,46.7906082 L78.7097485,45.0045823 L77.3088184,41.5401225 L72.8905003,43.3261483 Z M83.5806748,37.0642986 L82.2228502,33.7504674 L77.1363962,35.8162323 L78.4942208,39.1300635 L83.5806748,37.0642986 Z M79.1623568,40.786979 L80.5632869,44.2514389 L85.6497409,42.1856739 L84.2488108,38.7212142 L79.1623568,40.786979 Z" id="Shape"></path>
                    </g>
                </g>
            </g>
        </g>
    </g>
</svg>