
<svg width="364px" height="16px" viewBox="0 0 364 16" version="1.1" xmlns="http://www.w3.org/2000/svg" xmlns:xlink="http://www.w3.org/1999/xlink">
    <!-- Generator: Sketch 47.1 (45422) - http://www.bohemiancoding.com/sketch -->
    <desc>Created with Sketch.</desc>
    <defs></defs>
    <g id="Page-1" stroke="none" stroke-width="1" fill="none" fill-rule="evenodd">
        <g id="账单支付" transform="translate(-6.000000, -106.000000)" fill="#F3F3F3">
            <path d="M13.5,121 C9.35786438,121 6,117.642136 6,113.5 C6,109.357864 9.35786438,106 13.5,106 C17.6421356,106 21,109.357864 21,113.5 C21,117.642136 17.6421356,121 13.5,121 Z M362.5,122 C358.357864,122 355,118.642136 355,114.5 C355,110.357864 358.357864,107 362.5,107 C366.642136,107 370,110.357864 370,114.5 C370,118.642136 366.642136,122 362.5,122 Z M40,119 C37.2385763,119 35,116.761424 35,114 C35,111.238576 37.2385763,109 40,109 C42.7614237,109 45,111.238576 45,114 C45,116.761424 42.7614237,119 40,119 Z M60,119 C57.2385763,119 55,116.761424 55,114 C55,111.238576 57.2385763,109 60,109 C62.7614237,109 65,111.238576 65,114 C65,116.761424 62.7614237,119 60,119 Z M80,119 C77.2385763,119 75,116.761424 75,114 C75,111.238576 77.2385763,109 80,109 C82.7614237,109 85,111.238576 85,114 C85,116.761424 82.7614237,119 80,119 Z M100,119 C97.2385763,119 95,116.761424 95,114 C95,111.238576 97.2385763,109 100,109 C102.761424,109 105,111.238576 105,114 C105,116.761424 102.761424,119 100,119 Z M120,119 C117.238576,119 115,116.761424 115,114 C115,111.238576 117.238576,109 120,109 C122.761424,109 125,111.238576 125,114 C125,116.761424 122.761424,119 120,119 Z M140,119 C137.238576,119 135,116.761424 135,114 C135,111.238576 137.238576,109 140,109 C142.761424,109 145,111.238576 145,114 C145,116.761424 142.761424,119 140,119 Z M160,119 C157.238576,119 155,116.761424 155,114 C155,111.238576 157.238576,109 160,109 C162.761424,109 165,111.238576 165,114 C165,116.761424 162.761424,119 160,119 Z M180,119 C177.238576,119 175,116.761424 175,114 C175,111.238576 177.238576,109 180,109 C182.761424,109 185,111.238576 185,114 C185,116.761424 182.761424,119 180,119 Z M200,119 C197.238576,119 195,116.761424 195,114 C195,111.238576 197.238576,109 200,109 C202.761424,109 205,111.238576 205,114 C205,116.761424 202.761424,119 200,119 Z M220,119 C217.238576,119 215,116.761424 215,114 C215,111.238576 217.238576,109 220,109 C222.761424,109 225,111.238576 225,114 C225,116.761424 222.761424,119 220,119 Z M240,119 C237.238576,119 235,116.761424 235,114 C235,111.238576 237.238576,109 240,109 C242.761424,109 245,111.238576 245,114 C245,116.761424 242.761424,119 240,119 Z M260,119 C257.238576,119 255,116.761424 255,114 C255,111.238576 257.238576,109 260,109 C262.761424,109 265,111.238576 265,114 C265,116.761424 262.761424,119 260,119 Z M280,119 C277.238576,119 275,116.761424 275,114 C275,111.238576 277.238576,109 280,109 C282.761424,109 285,111.238576 285,114 C285,116.761424 282.761424,119 280,119 Z M300,119 C297.238576,119 295,116.761424 295,114 C295,111.238576 297.238576,109 300,109 C302.761424,109 305,111.238576 305,114 C305,116.761424 302.761424,119 300,119 Z M320,119 C317.238576,119 315,116.761424 315,114 C315,111.238576 317.238576,109 320,109 C322.761424,109 325,111.238576 325,114 C325,116.761424 322.761424,119 320,119 Z M340,119 C337.238576,119 335,116.761424 335,114 C335,111.238576 337.238576,109 340,109 C342.761424,109 345,111.238576 345,114 C345,116.761424 342.761424,119 340,119 Z" id="Combined-Shape"></path>
        </g>
    </g>
</svg>