<?xml version="1.0" standalone="no"?><!DOCTYPE svg PUBLIC "-//W3C//DTD SVG 1.1//EN" "http://www.w3.org/Graphics/SVG/1.1/DTD/svg11.dtd"><svg t="1512704808814" class="icon" style="" viewBox="0 0 1057 1024" version="1.1" xmlns="http://www.w3.org/2000/svg" p-id="633" xmlns:xlink="http://www.w3.org/1999/xlink" width="206.4453125" height="200"><defs><style type="text/css"></style></defs><path d="M549.589303 1023.99956A506.997957 506.997957 0 0 1 92.130279 297.022533l9.581514 9.383639a495.494864 495.494864 0 1 0 206.492837-220.805745l-9.405626-9.234135a507.134271 507.134271 0 1 1 250.790299 947.633268zM0.466104 141.361408a12.945377 12.945377 0 0 1 16.023422-10.241095l89.703021 26.044657a14.831779 14.831779 0 0 1 9.6035 17.681169 12.949774 12.949774 0 0 1-16.023422 10.241094l-89.703021-26.044656a14.836176 14.836176 0 0 1-9.6035-17.681169zM129.537319 0.809086a13.094882 13.094882 0 0 1 17.047971 8.631717l32.948271 95.028039a14.677877 14.677877 0 0 1-7.642345 18.521035 13.099279 13.099279 0 0 1-17.052369-8.631717L121.894973 19.325724A14.673479 14.673479 0 0 1 129.537319 0.809086z m470.114185 450.907186l-1.758883-176.917223-43.892919 2.084276 15.051639 176.284025z m-12.052744 82.904939a27.139561 27.139561 0 0 0-2.576763-54.208767 27.148355 27.148355 0 0 0 2.576763 54.208767z m-132.795649-5.074377a10.553297 10.553297 0 0 1-13.310345-6.740918l-15.126392-45.968401a10.553297 10.553297 0 1 1 20.016086-6.59581l15.130789 45.968401a10.553297 10.553297 0 0 1-6.714535 13.336728z m21.64745 32.060036l15.126392 45.968401a10.553297 10.553297 0 1 1-20.016086 6.59581l-15.130789-45.968401a10.553297 10.553297 0 1 1 20.016086-6.59581z m336.280796 43.123408l-412.044671 135.609861a22.817107 22.817107 0 0 1-28.753336-14.559152l-25.130038-76.361895a10.685213 10.685213 0 0 1-0.470501-2.198603 11.533874 11.533874 0 0 1-0.540856-1.319162 10.553297 10.553297 0 0 1 6.710137-13.327935 51.201077 51.201077 0 0 0-32.011666-97.270614 10.553297 10.553297 0 0 1-13.314743-6.740918 9.739813 9.739813 0 0 1-0.338584-1.358737 10.786349 10.786349 0 0 1-0.919017-2.035907l-25.5038-77.544744a22.817107 22.817107 0 0 1 14.4844-28.788513l109.846626-36.149438a10.553297 10.553297 0 0 1 1.530228-0.655184 10.416983 10.416983 0 0 1 1.626966-0.386954l109.261798-35.955961 6.947587 19.958922-101.175334 33.295651 8.908741 27.069205a10.553297 10.553297 0 1 1-20.016086 6.595811l-8.908741-27.069206-101.41718 33.379198a1.679733 1.679733 0 0 0-1.068522 2.128248l23.582221 71.674472a72.35604 72.35604 0 0 1 44.750375 135.970433l23.204061 70.504815a1.679733 1.679733 0 0 0 2.123851 1.072919l101.41718-33.374801-9.379243-28.507092a10.553297 10.553297 0 1 1 20.016086-6.59581l9.38364 28.507092 290.611405-95.643648a1.688527 1.688527 0 0 0 1.068521-2.128248l-23.397538-71.102836a72.883705 72.883705 0 0 1-77.4568-103.611386 70.70269 70.70269 0 0 1 32.671248-32.36784l-23.384347-71.05007a1.68413 1.68413 0 0 0-2.123851-1.077315l-68.394156 22.509302-6.951984-19.958922 68.737138-22.619233a22.812709 22.812709 0 0 1 28.748939 14.559153l26.286503 79.870866c0.03078 0.087944 0.048369 0.180285 0.074753 0.26823s0.070355 0.171491 0.101135 0.259435a10.553297 10.553297 0 0 1-6.70574 13.327934 50.013831 50.013831 0 0 0-32.504154 64.599367 51.192283 51.192283 0 0 0 63.930992 32.85593c0.18908-0.074753 0.373763-0.158299 0.571637-0.219861a10.553297 10.553297 0 0 1 13.310345 6.740919l26.471186 80.438106a22.803915 22.803915 0 0 1-14.471208 28.784116z" fill="#999" p-id="634"></path></svg>