<svg width="22px" height="22px" viewBox="0 0 22 22" version="1.1" xmlns="http://www.w3.org/2000/svg" xmlns:xlink="http://www.w3.org/1999/xlink">
    <!-- Generator: Sketch 47.1 (45422) - http://www.bohemiancoding.com/sketch -->
    <desc>Created with Sketch.</desc>
    <defs></defs>
    <g id="Page-1" stroke="none" stroke-width="1" fill="none" fill-rule="evenodd">
        <g id="选择优惠券" transform="translate(-314.000000, -133.000000)" fill-rule="nonzero" fill="#CFCFCF">
            <g id="Group" transform="translate(16.000000, 70.000000)">
                <g id="勾选" transform="translate(298.000000, 63.000000)">
                    <path d="M11.5115,14.99575 C11.3355,15.17175 11.099,15.27075 10.8515,15.27075 C10.604,15.27075 10.36475,15.17175 10.1915,14.99575 L4.96099999,9.76800001 C4.60624999,9.40225 4.61175,8.81925001 4.972,8.45899999 C5.33224999,8.09874999 5.91525001,8.09324998 6.281,8.44800001 L10.8515,13.01575 L19.657,4.21025 C17.64125,1.64725001 14.5145,0 11,0 C4.92525001,0 0,4.92525001 0,11 C0,17.07475 4.92525001,22 11,22 C17.07475,22 22,17.07475 22,11 C22,9.12175001 21.52975,7.3535 20.69925,5.808 L11.5115,14.99575 Z" id="Shape"></path>
                </g>
            </g>
        </g>
    </g>
</svg>