<?xml version="1.0" standalone="no"?><!DOCTYPE svg PUBLIC "-//W3C//DTD SVG 1.1//EN" "http://www.w3.org/Graphics/SVG/1.1/DTD/svg11.dtd"><svg t="1511942022911" class="icon" style="" viewBox="0 0 1024 1024" version="1.1" xmlns="http://www.w3.org/2000/svg" p-id="2976" xmlns:xlink="http://www.w3.org/1999/xlink" width="200" height="200"><defs><style type="text/css"></style></defs><path d="M512 1024C229.23264 1024 0 794.76736 0 512S229.23264 0 512 0s512 229.23264 512 512-229.23264 512-512 512z m-286.4128-473.42592c0.6912 11.9296 173.1072 173.1072 173.1072 173.1072a22.29248 22.29248 0 0 0 31.53408 0.03072l362.02496-362.03008c8.064-27.776-19.76832-29.96736-26.92096-26.92096-5.77536 2.98496-345.76896 289.34656-345.76896 289.34656-9.472 7.92576-24.90368 7.95648-34.37568 0.13824l-127.77984-105.4976c-22.3232 2.03776-32.51712 19.8912-31.8208 31.82592z" fill="#0CAE95" p-id="2977"></path></svg>