
<svg width="25px" height="25px" viewBox="0 0 25 25" version="1.1" xmlns="http://www.w3.org/2000/svg" xmlns:xlink="http://www.w3.org/1999/xlink">
    <!-- Generator: Sketch 47.1 (45422) - http://www.bohemiancoding.com/sketch -->
    <desc>Created with Sketch.</desc>
    <defs></defs>
    <g id="Page-1" stroke="none" stroke-width="1" fill="none" fill-rule="evenodd">
        <g id="账单支付" transform="translate(-133.000000, -687.000000)" fill-rule="nonzero" fill="#FFFFFF">
            <g id="支付宝-copy" transform="translate(13.000000, 672.000000)">
                <g id="微信-支付" transform="translate(120.000000, 15.000000)">
                    <path d="M9.53080389,15.7421432 C8.03446417,16.6459815 7.81250956,15.234911 7.81250956,15.234911 L5.93723259,10.4949249 C5.2155215,8.24248543 6.56165352,9.47939231 6.56165352,9.47939231 C6.56165352,9.47939231 7.7166537,10.4258026 8.59333326,11.0024012 C9.46940244,11.5793966 10.4680304,11.1719262 10.4680304,11.1719262 L22.7283603,5.04220139 C20.46612,1.99328438 16.7297262,0 12.499466,0 C5.59580151,0 0,5.30492699 0,11.8493854 C0,15.6141831 1.85275495,18.9641252 4.73917204,21.1354185 L4.21857205,24.376596 C4.21857205,24.376596 3.96466549,25.3226401 4.84418316,24.8838893 C5.44333551,24.5849088 6.97077266,23.5120948 7.88022813,22.8601484 C9.35683901,23.4164839 10.9220164,23.7007359 12.4999542,23.6991369 C19.4030083,23.6991369 25,18.3940879 25,11.8496295 C25,9.95409281 24.5282892,8.16393326 23.6929916,6.57473177 C19.7866147,9.12023124 10.7014291,15.0363027 9.53080389,15.7421432 L9.53080389,15.7421432 Z" id="Shape"></path>
                </g>
            </g>
        </g>
    </g>
</svg>